<mxfile host="65bd71144e">
    <diagram id="8N7Y6xVeZtBB1BHw2dKz" name="Page-1">
        <mxGraphModel dx="734" dy="607" grid="1" gridSize="10" guides="1" tooltips="1" connect="1" arrows="1" fold="1" page="1" pageScale="1" pageWidth="827" pageHeight="1169" math="0" shadow="0">
            <root>
                <mxCell id="0"/>
                <mxCell id="1" parent="0"/>
                <mxCell id="Pasp3V_EPRt6f8_NXhzm-1" value="" style="shape=image;verticalLabelPosition=bottom;labelBackgroundColor=default;verticalAlign=top;aspect=fixed;imageAspect=0;image=data:image/png,iVBORw0KGgoAAAANSUhEUgAAAI4AAACACAMAAADqKaFKAAAJJmlDQ1BpY2MAAEiJlZVnUJNZF8fv8zzphUASQodQQ5EqJYCUEFoo0quoQOidUEVsiLgCK4qINEWQRQEXXJUia0UUC4uCAhZ0gywCyrpxFVFBWXDfGZ33HT+8/5l7z2/+c+bec8/5cAEgiINlwct7YlK6wNvJjhkYFMwE3yiMn5bC8fR0A9/VuxEArcR7ut/P+a4IEZFp/OW4uLxy+SmCdACg7GXWzEpPWeGjy0wPj//CZ1dYsFzgMt9Y4eh/eexLzr8s+pLj681dfhUKABwp+hsO/4b/c++KVDiC9NioyGymT3JUelaYIJKZttIJHpfL9BQkR8UmRH5T8P+V/B2lR2anr0RucsomQWx0TDrzfw41MjA0BF9n8cbrS48hRv9/z2dFX73kegDYcwAg+7564ZUAdO4CQPrRV09tua+UfAA67vAzBJn/eqiVDQ0IgALoQAYoAlWgCXSBETADlsAWOAAX4AF8QRDYAPggBiQCAcgCuWAHKABFYB84CKpALWgATaAVnAad4Dy4Aq6D2+AuGAaPgRBMgpdABN6BBQiCsBAZokEykBKkDulARhAbsoYcIDfIGwqCQqFoKAnKgHKhnVARVApVQXVQE/QLdA66At2EBqGH0Dg0A/0NfYQRmATTYQVYA9aH2TAHdoV94fVwNJwK58D58F64Aq6HT8Id8BX4NjwMC+GX8BwCECLCQJQRXYSNcBEPJBiJQgTIVqQQKUfqkVakG+lD7iFCZBb5gMKgaCgmShdliXJG+aH4qFTUVlQxqgp1AtWB6kXdQ42jRKjPaDJaHq2DtkDz0IHoaHQWugBdjm5Et6OvoYfRk+h3GAyGgWFhzDDOmCBMHGYzphhzGNOGuYwZxExg5rBYrAxWB2uF9cCGYdOxBdhK7EnsJewQdhL7HkfEKeGMcI64YFwSLg9XjmvGXcQN4aZwC3hxvDreAu+Bj8BvwpfgG/Dd+Dv4SfwCQYLAIlgRfAlxhB2ECkIr4RphjPCGSCSqEM2JXsRY4nZiBfEU8QZxnPiBRCVpk7ikEFIGaS/pOOky6SHpDZlM1iDbkoPJ6eS95CbyVfJT8nsxmpieGE8sQmybWLVYh9iQ2CsKnqJO4VA2UHIo5ZQzlDuUWXG8uIY4VzxMfKt4tfg58VHxOQmahKGEh0SiRLFEs8RNiWkqlqpBdaBGUPOpx6hXqRM0hKZK49L4tJ20Bto12iQdQ2fRefQ4ehH9Z/oAXSRJlTSW9JfMlqyWvCApZCAMDQaPkcAoYZxmjDA+SilIcaQipfZItUoNSc1Ly0nbSkdKF0q3SQ9Lf5RhyjjIxMvsl+mUeSKLktWW9ZLNkj0ie012Vo4uZynHlyuUOy33SB6W15b3lt8sf0y+X35OQVHBSSFFoVLhqsKsIkPRVjFOsUzxouKMEk3JWilWqUzpktILpiSTw0xgVjB7mSJleWVn5QzlOuUB5QUVloqfSp5Km8oTVYIqWzVKtUy1R1WkpqTmrpar1qL2SB2vzlaPUT+k3qc+r8HSCNDYrdGpMc2SZvFYOawW1pgmWdNGM1WzXvO+FkaLrRWvdVjrrjasbaIdo12tfUcH1jHVidU5rDO4Cr3KfFXSqvpVo7okXY5upm6L7rgeQ89NL0+vU++Vvpp+sP5+/T79zwYmBgkGDQaPDamGLoZ5ht2GfxtpG/GNqo3uryavdly9bXXX6tfGOsaRxkeMH5jQTNxNdpv0mHwyNTMVmLaazpipmYWa1ZiNsulsT3Yx+4Y52tzOfJv5efMPFqYW6RanLf6y1LWMt2y2nF7DWhO5pmHNhJWKVZhVnZXQmmkdan3UWmijbBNmU2/zzFbVNsK20XaKo8WJ45zkvLIzsBPYtdvNcy24W7iX7RF7J/tC+wEHqoOfQ5XDU0cVx2jHFkeRk4nTZqfLzmhnV+f9zqM8BR6f18QTuZi5bHHpdSW5+rhWuT5z03YTuHW7w+4u7gfcx9aqr01a2+kBPHgeBzyeeLI8Uz1/9cJ4eXpVez33NvTO9e7zofls9Gn2eedr51vi+9hP0y/Dr8ef4h/i3+Q/H2AfUBogDNQP3BJ4O0g2KDaoKxgb7B/cGDy3zmHdwXWTISYhBSEj61nrs9ff3CC7IWHDhY2UjWEbz4SiQwNCm0MXwzzC6sPmwnnhNeEiPpd/iP8ywjaiLGIm0iqyNHIqyiqqNGo62ir6QPRMjE1MecxsLDe2KvZ1nHNcbdx8vEf88filhICEtkRcYmjiuSRqUnxSb7JicnbyYIpOSkGKMNUi9WCqSOAqaEyD0tandaXTlz/F/gzNjF0Z45nWmdWZ77P8s85kS2QnZfdv0t60Z9NUjmPOT5tRm/mbe3KVc3fkjm/hbKnbCm0N39qzTXVb/rbJ7U7bT+wg7Ijf8VueQV5p3tudATu78xXyt+dP7HLa1VIgViAoGN1tubv2B9QPsT8M7Fm9p3LP58KIwltFBkXlRYvF/OJbPxr+WPHj0t6ovQMlpiVH9mH2Je0b2W+z/0SpRGlO6cQB9wMdZcyywrK3BzcevFluXF57iHAo45Cwwq2iq1Ktcl/lYlVM1XC1XXVbjXzNnpr5wxGHh47YHmmtVagtqv14NPbogzqnuo56jfryY5hjmceeN/g39P3E/qmpUbaxqPHT8aTjwhPeJ3qbzJqamuWbS1rgloyWmZMhJ+/+bP9zV6tua10bo63oFDiVcerFL6G/jJx2Pd1zhn2m9az62Zp2WnthB9SxqUPUGdMp7ArqGjzncq6n27K7/Ve9X4+fVz5ffUHyQslFwsX8i0uXci7NXU65PHsl+spEz8aex1cDr97v9eoduOZ67cZ1x+tX+zh9l25Y3Th/0+LmuVvsW523TW939Jv0t/9m8lv7gOlAxx2zO113ze92D64ZvDhkM3Tlnv296/d5928Prx0eHPEbeTAaMip8EPFg+mHCw9ePMh8tPN4+hh4rfCL+pPyp/NP637V+bxOaCi+M24/3P/N59niCP/Hyj7Q/Fifzn5Ofl08pTTVNG02fn3Gcufti3YvJlykvF2YL/pT4s+aV5quzf9n+1S8KFE2+Frxe+rv4jcyb42+N3/bMec49fZf4bmG+8L3M+xMf2B/6PgZ8nFrIWsQuVnzS+tT92fXz2FLi0tI/QiyQvpNzTVQAAAAgY0hSTQAAeiYAAICEAAD6AAAAgOgAAHUwAADqYAAAOpgAABdwnLpRPAAAAKtQTFRF////////////9M7N8L284nx57a2r6Z2azyolyAkDzBkU++/uw8PDq6ur5+fnt7e38/Pz0zo1TExMfHx8WFhYlJSUz8/PZGRkoKCg+N7diIiI215a3mto29vbcHBw2ltXyg8KzR8ZzSEb8cG/yQ4I3Wdk105JyhMN4n980C8q9NDP3GBd0TAryhIM0jcyyhALyhEL1D86yxgT4HVy5YyKzSAa1kZC6JeU7rOxgwtUTgAAAAJ0Uk5Tu4iSwbFZAAAAAWJLR0QAiAUdSAAAAAlwSFlzAAAASAAAAEgARslrPgAAAAd0SU1FB+UIBAsjHeS1CF4AAANQSURBVHja7dtrV9pAEAZgGkRdKASDxNBCb9qqtVWxavv/f1kJAbOkye47k52Vc7rzyQs7PMwkWc9xp9PZp3jTifYpOoETOIETOIHzKtE96B0e7Avn6Fjl0e8NjJy3wxEr/WgYjwmVOVHb6B+aOEmSTCiJ1zGOJ6t1p9MUXdBTWhyZOaTEq0inp/mafOFZhtV2cKxx+jMTJ3tHSTzKzpKioqPh9iu75qT/XvPMTZw0ghMXTSrpi6JOttquNN1ornm0y7mGAyZO614T22u71kS6R7t66jnWxGWT/vmNpbYbje7pARxD4mqTqlHU9oNZo3kwTkPTUuQKWdW2lqNpSg/MiapNa24SFDuaFw9y7ZTx0rSRpUlUzdajPXgATrRtGv0RadEUno/a9xgn2jSN26QmTTT/tFMcnLNqWsptUrOm352b9yx+L1iayk98cTCNLw6o8cRBNX44sMYLB9f44BA0HjgUjTyHpBHn0DTSHKJGmEPVyHLIGlEOXSPJwTQLTxxMEydTLxywU1ky8cFBrxs/HPgq9sLB7ykfHMId7oFDed7Ic0hPP3EO7VkszSHuDMIc6j4lyyHvmqIc+h4uyWH8RSHIYWgEORyNHIelEePwNFIcpkaIw9XIcNgaEQ5fI8FpoRHgtNG457TSOOe007jmtNQ45rTVuOV8/tJS45Rzri6+ttM45XxT6vKqlcYp51pVPVSNS8739b8OdQ9Z45JzoyoeusYl54fa9TA0Djmzn2rHw9E45GinKHIPS+OQc6t0D0/jjjO4088oXdyzNO44V2on7s9fl7PULHe3NzN0nRDnYWt5WP4aoIvEOI+F5Wn5yLc45OS9enr+3YbiknN5/fynrcUhh3dfi3EcReAETuAETuAETuAETuBwYpwuWOusHM5x7fVpfM6Z8/xMtomT0Q+zb07j00/kb8YMYgMHn2gpohyZACdaLO9TMy6GJ66MTAATLZHllfXTa0jiupEJqLamj9s0TGdJ3DzXYqmtJa9htq85sWWupbm21qqbRw3rliNzLbU1QK5J2+RjJbFt+KjxzcE7FhjELBMTb+aytvA9h82FFunoj7pNTfDhHHRMtUjM2AiKiqIfgjA1u8iYu32Mz76GEefACZzA+d85fwFEfvggVoYZmQAAACV0RVh0ZGF0ZTpjcmVhdGUAMjAyMS0wOC0wNFQwOTozNToyOSswMjowMEPOfrgAAAAldEVYdGRhdGU6bW9kaWZ5ADIwMjEtMDgtMDRUMDk6MzU6MjkrMDI6MDAyk8YEAAAAOXRFWHRwczpIaVJlc0JvdW5kaW5nQm94ADE0MS43MzJ4MTI3LjU1OSsyMzQuNjMzODU4KzMzMS43MjA0NzLNtWaYAAAAHHRFWHRwczpMZXZlbABBZG9iZS0zLjAgRVBTRi0zLjAKm3C74wAAAABJRU5ErkJggg==;" parent="1" vertex="1">
                    <mxGeometry x="626" y="70" width="142" height="128" as="geometry"/>
                </mxCell>
                <mxCell id="Pasp3V_EPRt6f8_NXhzm-2" value="" style="shape=image;verticalLabelPosition=bottom;labelBackgroundColor=default;verticalAlign=top;aspect=fixed;imageAspect=0;image=data:image/png,iVBORw0KGgoAAAANSUhEUgAAAI4AAACACAMAAADqKaFKAAAJJmlDQ1BpY2MAAEiJlZVnUJNZF8fv8zzphUASQodQQ5EqJYCUEFoo0quoQOidUEVsiLgCK4qINEWQRQEXXJUia0UUC4uCAhZ0gywCyrpxFVFBWXDfGZ33HT+8/5l7z2/+c+bec8/5cAEgiINlwct7YlK6wNvJjhkYFMwE3yiMn5bC8fR0A9/VuxEArcR7ut/P+a4IEZFp/OW4uLxy+SmCdACg7GXWzEpPWeGjy0wPj//CZ1dYsFzgMt9Y4eh/eexLzr8s+pLj681dfhUKABwp+hsO/4b/c++KVDiC9NioyGymT3JUelaYIJKZttIJHpfL9BQkR8UmRH5T8P+V/B2lR2anr0RucsomQWx0TDrzfw41MjA0BF9n8cbrS48hRv9/z2dFX73kegDYcwAg+7564ZUAdO4CQPrRV09tua+UfAA67vAzBJn/eqiVDQ0IgALoQAYoAlWgCXSBETADlsAWOAAX4AF8QRDYAPggBiQCAcgCuWAHKABFYB84CKpALWgATaAVnAad4Dy4Aq6D2+AuGAaPgRBMgpdABN6BBQiCsBAZokEykBKkDulARhAbsoYcIDfIGwqCQqFoKAnKgHKhnVARVApVQXVQE/QLdA66At2EBqGH0Dg0A/0NfYQRmATTYQVYA9aH2TAHdoV94fVwNJwK58D58F64Aq6HT8Id8BX4NjwMC+GX8BwCECLCQJQRXYSNcBEPJBiJQgTIVqQQKUfqkVakG+lD7iFCZBb5gMKgaCgmShdliXJG+aH4qFTUVlQxqgp1AtWB6kXdQ42jRKjPaDJaHq2DtkDz0IHoaHQWugBdjm5Et6OvoYfRk+h3GAyGgWFhzDDOmCBMHGYzphhzGNOGuYwZxExg5rBYrAxWB2uF9cCGYdOxBdhK7EnsJewQdhL7HkfEKeGMcI64YFwSLg9XjmvGXcQN4aZwC3hxvDreAu+Bj8BvwpfgG/Dd+Dv4SfwCQYLAIlgRfAlxhB2ECkIr4RphjPCGSCSqEM2JXsRY4nZiBfEU8QZxnPiBRCVpk7ikEFIGaS/pOOky6SHpDZlM1iDbkoPJ6eS95CbyVfJT8nsxmpieGE8sQmybWLVYh9iQ2CsKnqJO4VA2UHIo5ZQzlDuUWXG8uIY4VzxMfKt4tfg58VHxOQmahKGEh0SiRLFEs8RNiWkqlqpBdaBGUPOpx6hXqRM0hKZK49L4tJ20Bto12iQdQ2fRefQ4ehH9Z/oAXSRJlTSW9JfMlqyWvCApZCAMDQaPkcAoYZxmjDA+SilIcaQipfZItUoNSc1Ly0nbSkdKF0q3SQ9Lf5RhyjjIxMvsl+mUeSKLktWW9ZLNkj0ie012Vo4uZynHlyuUOy33SB6W15b3lt8sf0y+X35OQVHBSSFFoVLhqsKsIkPRVjFOsUzxouKMEk3JWilWqUzpktILpiSTw0xgVjB7mSJleWVn5QzlOuUB5QUVloqfSp5Km8oTVYIqWzVKtUy1R1WkpqTmrpar1qL2SB2vzlaPUT+k3qc+r8HSCNDYrdGpMc2SZvFYOawW1pgmWdNGM1WzXvO+FkaLrRWvdVjrrjasbaIdo12tfUcH1jHVidU5rDO4Cr3KfFXSqvpVo7okXY5upm6L7rgeQ89NL0+vU++Vvpp+sP5+/T79zwYmBgkGDQaPDamGLoZ5ht2GfxtpG/GNqo3uryavdly9bXXX6tfGOsaRxkeMH5jQTNxNdpv0mHwyNTMVmLaazpipmYWa1ZiNsulsT3Yx+4Y52tzOfJv5efMPFqYW6RanLf6y1LWMt2y2nF7DWhO5pmHNhJWKVZhVnZXQmmkdan3UWmijbBNmU2/zzFbVNsK20XaKo8WJ45zkvLIzsBPYtdvNcy24W7iX7RF7J/tC+wEHqoOfQ5XDU0cVx2jHFkeRk4nTZqfLzmhnV+f9zqM8BR6f18QTuZi5bHHpdSW5+rhWuT5z03YTuHW7w+4u7gfcx9aqr01a2+kBPHgeBzyeeLI8Uz1/9cJ4eXpVez33NvTO9e7zofls9Gn2eedr51vi+9hP0y/Dr8ef4h/i3+Q/H2AfUBogDNQP3BJ4O0g2KDaoKxgb7B/cGDy3zmHdwXWTISYhBSEj61nrs9ff3CC7IWHDhY2UjWEbz4SiQwNCm0MXwzzC6sPmwnnhNeEiPpd/iP8ywjaiLGIm0iqyNHIqyiqqNGo62ir6QPRMjE1MecxsLDe2KvZ1nHNcbdx8vEf88filhICEtkRcYmjiuSRqUnxSb7JicnbyYIpOSkGKMNUi9WCqSOAqaEyD0tandaXTlz/F/gzNjF0Z45nWmdWZ77P8s85kS2QnZfdv0t60Z9NUjmPOT5tRm/mbe3KVc3fkjm/hbKnbCm0N39qzTXVb/rbJ7U7bT+wg7Ijf8VueQV5p3tudATu78xXyt+dP7HLa1VIgViAoGN1tubv2B9QPsT8M7Fm9p3LP58KIwltFBkXlRYvF/OJbPxr+WPHj0t6ovQMlpiVH9mH2Je0b2W+z/0SpRGlO6cQB9wMdZcyywrK3BzcevFluXF57iHAo45Cwwq2iq1Ktcl/lYlVM1XC1XXVbjXzNnpr5wxGHh47YHmmtVagtqv14NPbogzqnuo56jfryY5hjmceeN/g39P3E/qmpUbaxqPHT8aTjwhPeJ3qbzJqamuWbS1rgloyWmZMhJ+/+bP9zV6tua10bo63oFDiVcerFL6G/jJx2Pd1zhn2m9az62Zp2WnthB9SxqUPUGdMp7ArqGjzncq6n27K7/Ve9X4+fVz5ffUHyQslFwsX8i0uXci7NXU65PHsl+spEz8aex1cDr97v9eoduOZ67cZ1x+tX+zh9l25Y3Th/0+LmuVvsW523TW939Jv0t/9m8lv7gOlAxx2zO113ze92D64ZvDhkM3Tlnv296/d5928Prx0eHPEbeTAaMip8EPFg+mHCw9ePMh8tPN4+hh4rfCL+pPyp/NP637V+bxOaCi+M24/3P/N59niCP/Hyj7Q/Fifzn5Ofl08pTTVNG02fn3Gcufti3YvJlykvF2YL/pT4s+aV5quzf9n+1S8KFE2+Frxe+rv4jcyb42+N3/bMec49fZf4bmG+8L3M+xMf2B/6PgZ8nFrIWsQuVnzS+tT92fXz2FLi0tI/QiyQvpNzTVQAAAAgY0hSTQAAeiYAAICEAAD6AAAAgOgAAHUwAADqYAAAOpgAABdwnLpRPAAAAFFQTFRF////////////////29vbz8/P5+fnTExMvr6+tbW19M7N8L28+N7d10tG2ltXyAkD4nx53mto5YyJzBkUzyol7a2r0zo16Z2a++/u8/PzrKys3SBXUgAAAAN0Uk5TRCKIyTSs8AAAAAFiS0dEAIgFHUgAAAAJcEhZcwAAAEgAAABIAEbJaz4AAAAHdElNRQflCAQLIx3ktQheAAACZklEQVR42u3aa2+CMBQGYDfUCbVSBa///4dOxKVEey4cQ9vp6ZeRJi8+W8lo3zib5TS+ZkVO41s5ylGOcpST0cibM1/EHnOEs/yJP5YwZ5GAs0A5kR8W5ShHOcpRjnJknFWCV+gK5pQJOCW6WJF3X//p2VGOcpSjHOXI7lqZKjZnba0NfqjZ1N3YmLHBlzju+pEGmO+HGxd8iVPV4bt6TV1vxwRf4uya8F3NzdHa9vZzzw+KOWvjtk3/6z/f1f6t0q67OPCDYs5gOZ7uuu5mrYdV3OA0nGM3e/SXu7Qc52fN08M8Dafwa2GCs6f+2q8bIzgN59DNFp7TpuXUD5yaG5ye0+bFscpBOBk8O01eHPvAOXCDE3L6F9Xg9ZWM4/y2wgA7sJicvTcMZMk4/bPcrVbVXTWnxJxtN9045xpodxqVc2oGe+XQHycup1+ku6YaE5yGU1T2rgEOU9NwkGHc9WDnjCT6EWd05ShHOe/BEfdtaFDGofo2cFBBEYfs26D+jwxKOGTfBvV/dFDAIfs2qP9jBAUcrG/rB9D/0UEBB+3bsP4PD0o5aN+GNVx4UMpB+zaMgwelHLxvQziMok7AYfRt4f0wJziew+hMwhxO8DVOK+W0k3CslGM/gZPBs8Po28IcTlD4f2dw19C7J8jhBIUcvG9DOERQ+JLA+7YwhxMcz2H0bWEOJyjY79B9G1Y640EBh+7bAA4jKODQfRvAYQQlW3eyb4MaLjooOthQfRtcHFJB4SmU6Nvg/o8IvssZXTnKUY5yPoCjX73Hvnp/Li+Rv3p/Kc8wJ/lQjnKUoxzl5DRy4/wCr2cqB82GjD4AAAAldEVYdGRhdGU6Y3JlYXRlADIwMjEtMDgtMDRUMDk6MzU6MjkrMDI6MDBDzn64AAAAJXRFWHRkYXRlOm1vZGlmeQAyMDIxLTA4LTA0VDA5OjM1OjI5KzAyOjAwMpPGBAAAADl0RVh0cHM6SGlSZXNCb3VuZGluZ0JveAAxNDEuNzMyeDEyNy41NTkrMjM0LjYzMzg1OCszMzEuNzIwNDcyzbVmmAAAAC10RVh0cHM6TGV2ZWwAQWRvYmVGb250LTEuMDogTmltYnVzU2FuTC1Cb2xkIDEuMDUKS+uLPwAAADh0RVh0cHM6U3BvdENvbG9yLTAALXEgLW9sb2dvX2RhdGFNZFZiXy5wcyBsb2dvX2RhdGFNZFZiXy5kdmn9ioyQAAAAAElFTkSuQmCC;" parent="1" vertex="1">
                    <mxGeometry x="480" y="70" width="142" height="128" as="geometry"/>
                </mxCell>
                <mxCell id="Pasp3V_EPRt6f8_NXhzm-3" value="" style="shape=image;verticalLabelPosition=bottom;labelBackgroundColor=default;verticalAlign=top;aspect=fixed;imageAspect=0;image=data:image/png,iVBORw0KGgoAAAANSUhEUgAAAI4AAACACAMAAADqKaFKAAAJJmlDQ1BpY2MAAEiJlZVnUJNZF8fv8zzphUASQodQQ5EqJYCUEFoo0quoQOidUEVsiLgCK4qINEWQRQEXXJUia0UUC4uCAhZ0gywCyrpxFVFBWXDfGZ33HT+8/5l7z2/+c+bec8/5cAEgiINlwct7YlK6wNvJjhkYFMwE3yiMn5bC8fR0A9/VuxEArcR7ut/P+a4IEZFp/OW4uLxy+SmCdACg7GXWzEpPWeGjy0wPj//CZ1dYsFzgMt9Y4eh/eexLzr8s+pLj681dfhUKABwp+hsO/4b/c++KVDiC9NioyGymT3JUelaYIJKZttIJHpfL9BQkR8UmRH5T8P+V/B2lR2anr0RucsomQWx0TDrzfw41MjA0BF9n8cbrS48hRv9/z2dFX73kegDYcwAg+7564ZUAdO4CQPrRV09tua+UfAA67vAzBJn/eqiVDQ0IgALoQAYoAlWgCXSBETADlsAWOAAX4AF8QRDYAPggBiQCAcgCuWAHKABFYB84CKpALWgATaAVnAad4Dy4Aq6D2+AuGAaPgRBMgpdABN6BBQiCsBAZokEykBKkDulARhAbsoYcIDfIGwqCQqFoKAnKgHKhnVARVApVQXVQE/QLdA66At2EBqGH0Dg0A/0NfYQRmATTYQVYA9aH2TAHdoV94fVwNJwK58D58F64Aq6HT8Id8BX4NjwMC+GX8BwCECLCQJQRXYSNcBEPJBiJQgTIVqQQKUfqkVakG+lD7iFCZBb5gMKgaCgmShdliXJG+aH4qFTUVlQxqgp1AtWB6kXdQ42jRKjPaDJaHq2DtkDz0IHoaHQWugBdjm5Et6OvoYfRk+h3GAyGgWFhzDDOmCBMHGYzphhzGNOGuYwZxExg5rBYrAxWB2uF9cCGYdOxBdhK7EnsJewQdhL7HkfEKeGMcI64YFwSLg9XjmvGXcQN4aZwC3hxvDreAu+Bj8BvwpfgG/Dd+Dv4SfwCQYLAIlgRfAlxhB2ECkIr4RphjPCGSCSqEM2JXsRY4nZiBfEU8QZxnPiBRCVpk7ikEFIGaS/pOOky6SHpDZlM1iDbkoPJ6eS95CbyVfJT8nsxmpieGE8sQmybWLVYh9iQ2CsKnqJO4VA2UHIo5ZQzlDuUWXG8uIY4VzxMfKt4tfg58VHxOQmahKGEh0SiRLFEs8RNiWkqlqpBdaBGUPOpx6hXqRM0hKZK49L4tJ20Bto12iQdQ2fRefQ4ehH9Z/oAXSRJlTSW9JfMlqyWvCApZCAMDQaPkcAoYZxmjDA+SilIcaQipfZItUoNSc1Ly0nbSkdKF0q3SQ9Lf5RhyjjIxMvsl+mUeSKLktWW9ZLNkj0ie012Vo4uZynHlyuUOy33SB6W15b3lt8sf0y+X35OQVHBSSFFoVLhqsKsIkPRVjFOsUzxouKMEk3JWilWqUzpktILpiSTw0xgVjB7mSJleWVn5QzlOuUB5QUVloqfSp5Km8oTVYIqWzVKtUy1R1WkpqTmrpar1qL2SB2vzlaPUT+k3qc+r8HSCNDYrdGpMc2SZvFYOawW1pgmWdNGM1WzXvO+FkaLrRWvdVjrrjasbaIdo12tfUcH1jHVidU5rDO4Cr3KfFXSqvpVo7okXY5upm6L7rgeQ89NL0+vU++Vvpp+sP5+/T79zwYmBgkGDQaPDamGLoZ5ht2GfxtpG/GNqo3uryavdly9bXXX6tfGOsaRxkeMH5jQTNxNdpv0mHwyNTMVmLaazpipmYWa1ZiNsulsT3Yx+4Y52tzOfJv5efMPFqYW6RanLf6y1LWMt2y2nF7DWhO5pmHNhJWKVZhVnZXQmmkdan3UWmijbBNmU2/zzFbVNsK20XaKo8WJ45zkvLIzsBPYtdvNcy24W7iX7RF7J/tC+wEHqoOfQ5XDU0cVx2jHFkeRk4nTZqfLzmhnV+f9zqM8BR6f18QTuZi5bHHpdSW5+rhWuT5z03YTuHW7w+4u7gfcx9aqr01a2+kBPHgeBzyeeLI8Uz1/9cJ4eXpVez33NvTO9e7zofls9Gn2eedr51vi+9hP0y/Dr8ef4h/i3+Q/H2AfUBogDNQP3BJ4O0g2KDaoKxgb7B/cGDy3zmHdwXWTISYhBSEj61nrs9ff3CC7IWHDhY2UjWEbz4SiQwNCm0MXwzzC6sPmwnnhNeEiPpd/iP8ywjaiLGIm0iqyNHIqyiqqNGo62ir6QPRMjE1MecxsLDe2KvZ1nHNcbdx8vEf88filhICEtkRcYmjiuSRqUnxSb7JicnbyYIpOSkGKMNUi9WCqSOAqaEyD0tandaXTlz/F/gzNjF0Z45nWmdWZ77P8s85kS2QnZfdv0t60Z9NUjmPOT5tRm/mbe3KVc3fkjm/hbKnbCm0N39qzTXVb/rbJ7U7bT+wg7Ijf8VueQV5p3tudATu78xXyt+dP7HLa1VIgViAoGN1tubv2B9QPsT8M7Fm9p3LP58KIwltFBkXlRYvF/OJbPxr+WPHj0t6ovQMlpiVH9mH2Je0b2W+z/0SpRGlO6cQB9wMdZcyywrK3BzcevFluXF57iHAo45Cwwq2iq1Ktcl/lYlVM1XC1XXVbjXzNnpr5wxGHh47YHmmtVagtqv14NPbogzqnuo56jfryY5hjmceeN/g39P3E/qmpUbaxqPHT8aTjwhPeJ3qbzJqamuWbS1rgloyWmZMhJ+/+bP9zV6tua10bo63oFDiVcerFL6G/jJx2Pd1zhn2m9az62Zp2WnthB9SxqUPUGdMp7ArqGjzncq6n27K7/Ve9X4+fVz5ffUHyQslFwsX8i0uXci7NXU65PHsl+spEz8aex1cDr97v9eoduOZ67cZ1x+tX+zh9l25Y3Th/0+LmuVvsW523TW939Jv0t/9m8lv7gOlAxx2zO113ze92D64ZvDhkM3Tlnv296/d5928Prx0eHPEbeTAaMip8EPFg+mHCw9ePMh8tPN4+hh4rfCL+pPyp/NP637V+bxOaCi+M24/3P/N59niCP/Hyj7Q/Fifzn5Ofl08pTTVNG02fn3Gcufti3YvJlykvF2YL/pT4s+aV5quzf9n+1S8KFE2+Frxe+rv4jcyb42+N3/bMec49fZf4bmG+8L3M+xMf2B/6PgZ8nFrIWsQuVnzS+tT92fXz2FLi0tI/QiyQvpNzTVQAAAAgY0hSTQAAeiYAAICEAAD6AAAAgOgAAHUwAADqYAAAOpgAABdwnLpRPAAAAKJQTFRF////////////z8/P29vbq6urTExMoKCgfHx8lZWVb29vxsbGc3NzrKys+N7d9M7N8L28zBkUyAkD4nx510tG0zo10tLStbW1ZmZmVVVVvr6+o6OjgYGB6OjolJSUw8PDt7e3cHBwWFhY5+fn8/PziIiI5YyJ2ltX3mtozyol321p1kZC4HRx2E5K211azBsVzygi6Z2a0zk0++/u5Y2L7a2r4Z8lcQAAAAJ0Uk5Tu4iSwbFZAAAAAWJLR0QAiAUdSAAAAAlwSFlzAAAASAAAAEgARslrPgAAAAd0SU1FB+UIBAsjHeS1CF4AAAKWSURBVHja7dprV9pAEAZgDDhYLQGS2HvFO1qtWm3//19rDvT07G52dt/ZNrjozBcumTM8hJckJAwGOdXOoMipBspRzuvjDFNr1Adnl5IL9gg443TOsBfOHtxrlXKUo5zt4byh/bSNMtFBD5y36ZvBycvnZJYd5ShHOb1yyumf21mkphvhzKv169RVpJqNcA7nZU4caSlHOcpRzgvjZLZVzmyfldkeXVrKUY5ytoeT2RmMzDjvJu//ntA6+EAfPxknuCbtB2LUZ6IvxsLJ1x44Zh0RLczHQyJr+ZjoOGVuGueYaGw94XKKEzrFr9P8I2d0Sif2Mx3OWdtyvhnOefvWzyKcYkF0tBmOGxwvJy0+CZxOcPycpPjIOd3gMJyU+Ig5nuAwnJT4iDme4HCchPhIOb7gsBx5fIQcb3B4jjg+Mo4/ODxHHB8Zxx+cAEcaHxGHCU6II4yPhMMFJ8iRxUfAYYMT5MjiI+CwwQlzRPHBOXxwIhxJfGBOIDgxjiA+KCcUnBhHEB+UEwpOlIPHB+QEgxPnwPHBOOHgABw0PhAnEhyAg8YH4kSCg3DA+CCcRSQ4EKeIrmGUcxEJDsZp4xNfPQhnNI6ncHfxX8Zs8b8qlZMX57IJ1czoLJehzqu0oS4HuuSxqsj1kVnS0C7nquaqcTjXbGftctChXY617qyqHU7DdhYuBx2qHOUoRznKUY5ylKOcZ+aYx5Hfbm7Rg9Pvd+jBaWho5ofutfWb4756sB7/MDqn1pLHdqxZy6ekoeGffU1VF1jNqgrsDA9VztZzntZ/tHus7tZ3AtOnq4af7XdpVSXfiQz1c5bOl/GS1zidc56DDPVz3I3KL/Y1yrndechzkKF5n9957lKOcpSjHOXkVLlxfgPm5v6nrmYEKgAAACV0RVh0ZGF0ZTpjcmVhdGUAMjAyMS0wOC0wNFQwOTozNToyOSswMjowMEPOfrgAAAAldEVYdGRhdGU6bW9kaWZ5ADIwMjEtMDgtMDRUMDk6MzU6MjkrMDI6MDAyk8YEAAAAOXRFWHRwczpIaVJlc0JvdW5kaW5nQm94ADE0MS43MzJ4MTI3LjU1OSsyMzQuNjMzODU4KzMzMS43MjA0NzLNtWaYAAAAHHRFWHRwczpMZXZlbABBZG9iZS0zLjAgRVBTRi0zLjAKm3C74wAAAABJRU5ErkJggg==;" parent="1" vertex="1">
                    <mxGeometry x="157" y="235" width="142" height="128" as="geometry"/>
                </mxCell>
                <mxCell id="Pasp3V_EPRt6f8_NXhzm-4" value="" style="shape=image;verticalLabelPosition=bottom;labelBackgroundColor=default;verticalAlign=top;aspect=fixed;imageAspect=0;image=data:image/png,iVBORw0KGgoAAAANSUhEUgAAAI4AAACACAMAAADqKaFKAAAJJmlDQ1BpY2MAAEiJlZVnUJNZF8fv8zzphUASQodQQ5EqJYCUEFoo0quoQOidUEVsiLgCK4qINEWQRQEXXJUia0UUC4uCAhZ0gywCyrpxFVFBWXDfGZ33HT+8/5l7z2/+c+bec8/5cAEgiINlwct7YlK6wNvJjhkYFMwE3yiMn5bC8fR0A9/VuxEArcR7ut/P+a4IEZFp/OW4uLxy+SmCdACg7GXWzEpPWeGjy0wPj//CZ1dYsFzgMt9Y4eh/eexLzr8s+pLj681dfhUKABwp+hsO/4b/c++KVDiC9NioyGymT3JUelaYIJKZttIJHpfL9BQkR8UmRH5T8P+V/B2lR2anr0RucsomQWx0TDrzfw41MjA0BF9n8cbrS48hRv9/z2dFX73kegDYcwAg+7564ZUAdO4CQPrRV09tua+UfAA67vAzBJn/eqiVDQ0IgALoQAYoAlWgCXSBETADlsAWOAAX4AF8QRDYAPggBiQCAcgCuWAHKABFYB84CKpALWgATaAVnAad4Dy4Aq6D2+AuGAaPgRBMgpdABN6BBQiCsBAZokEykBKkDulARhAbsoYcIDfIGwqCQqFoKAnKgHKhnVARVApVQXVQE/QLdA66At2EBqGH0Dg0A/0NfYQRmATTYQVYA9aH2TAHdoV94fVwNJwK58D58F64Aq6HT8Id8BX4NjwMC+GX8BwCECLCQJQRXYSNcBEPJBiJQgTIVqQQKUfqkVakG+lD7iFCZBb5gMKgaCgmShdliXJG+aH4qFTUVlQxqgp1AtWB6kXdQ42jRKjPaDJaHq2DtkDz0IHoaHQWugBdjm5Et6OvoYfRk+h3GAyGgWFhzDDOmCBMHGYzphhzGNOGuYwZxExg5rBYrAxWB2uF9cCGYdOxBdhK7EnsJewQdhL7HkfEKeGMcI64YFwSLg9XjmvGXcQN4aZwC3hxvDreAu+Bj8BvwpfgG/Dd+Dv4SfwCQYLAIlgRfAlxhB2ECkIr4RphjPCGSCSqEM2JXsRY4nZiBfEU8QZxnPiBRCVpk7ikEFIGaS/pOOky6SHpDZlM1iDbkoPJ6eS95CbyVfJT8nsxmpieGE8sQmybWLVYh9iQ2CsKnqJO4VA2UHIo5ZQzlDuUWXG8uIY4VzxMfKt4tfg58VHxOQmahKGEh0SiRLFEs8RNiWkqlqpBdaBGUPOpx6hXqRM0hKZK49L4tJ20Bto12iQdQ2fRefQ4ehH9Z/oAXSRJlTSW9JfMlqyWvCApZCAMDQaPkcAoYZxmjDA+SilIcaQipfZItUoNSc1Ly0nbSkdKF0q3SQ9Lf5RhyjjIxMvsl+mUeSKLktWW9ZLNkj0ie012Vo4uZynHlyuUOy33SB6W15b3lt8sf0y+X35OQVHBSSFFoVLhqsKsIkPRVjFOsUzxouKMEk3JWilWqUzpktILpiSTw0xgVjB7mSJleWVn5QzlOuUB5QUVloqfSp5Km8oTVYIqWzVKtUy1R1WkpqTmrpar1qL2SB2vzlaPUT+k3qc+r8HSCNDYrdGpMc2SZvFYOawW1pgmWdNGM1WzXvO+FkaLrRWvdVjrrjasbaIdo12tfUcH1jHVidU5rDO4Cr3KfFXSqvpVo7okXY5upm6L7rgeQ89NL0+vU++Vvpp+sP5+/T79zwYmBgkGDQaPDamGLoZ5ht2GfxtpG/GNqo3uryavdly9bXXX6tfGOsaRxkeMH5jQTNxNdpv0mHwyNTMVmLaazpipmYWa1ZiNsulsT3Yx+4Y52tzOfJv5efMPFqYW6RanLf6y1LWMt2y2nF7DWhO5pmHNhJWKVZhVnZXQmmkdan3UWmijbBNmU2/zzFbVNsK20XaKo8WJ45zkvLIzsBPYtdvNcy24W7iX7RF7J/tC+wEHqoOfQ5XDU0cVx2jHFkeRk4nTZqfLzmhnV+f9zqM8BR6f18QTuZi5bHHpdSW5+rhWuT5z03YTuHW7w+4u7gfcx9aqr01a2+kBPHgeBzyeeLI8Uz1/9cJ4eXpVez33NvTO9e7zofls9Gn2eedr51vi+9hP0y/Dr8ef4h/i3+Q/H2AfUBogDNQP3BJ4O0g2KDaoKxgb7B/cGDy3zmHdwXWTISYhBSEj61nrs9ff3CC7IWHDhY2UjWEbz4SiQwNCm0MXwzzC6sPmwnnhNeEiPpd/iP8ywjaiLGIm0iqyNHIqyiqqNGo62ir6QPRMjE1MecxsLDe2KvZ1nHNcbdx8vEf88filhICEtkRcYmjiuSRqUnxSb7JicnbyYIpOSkGKMNUi9WCqSOAqaEyD0tandaXTlz/F/gzNjF0Z45nWmdWZ77P8s85kS2QnZfdv0t60Z9NUjmPOT5tRm/mbe3KVc3fkjm/hbKnbCm0N39qzTXVb/rbJ7U7bT+wg7Ijf8VueQV5p3tudATu78xXyt+dP7HLa1VIgViAoGN1tubv2B9QPsT8M7Fm9p3LP58KIwltFBkXlRYvF/OJbPxr+WPHj0t6ovQMlpiVH9mH2Je0b2W+z/0SpRGlO6cQB9wMdZcyywrK3BzcevFluXF57iHAo45Cwwq2iq1Ktcl/lYlVM1XC1XXVbjXzNnpr5wxGHh47YHmmtVagtqv14NPbogzqnuo56jfryY5hjmceeN/g39P3E/qmpUbaxqPHT8aTjwhPeJ3qbzJqamuWbS1rgloyWmZMhJ+/+bP9zV6tua10bo63oFDiVcerFL6G/jJx2Pd1zhn2m9az62Zp2WnthB9SxqUPUGdMp7ArqGjzncq6n27K7/Ve9X4+fVz5ffUHyQslFwsX8i0uXci7NXU65PHsl+spEz8aex1cDr97v9eoduOZ67cZ1x+tX+zh9l25Y3Th/0+LmuVvsW523TW939Jv0t/9m8lv7gOlAxx2zO113ze92D64ZvDhkM3Tlnv296/d5928Prx0eHPEbeTAaMip8EPFg+mHCw9ePMh8tPN4+hh4rfCL+pPyp/NP637V+bxOaCi+M24/3P/N59niCP/Hyj7Q/Fifzn5Ofl08pTTVNG02fn3Gcufti3YvJlykvF2YL/pT4s+aV5quzf9n+1S8KFE2+Frxe+rv4jcyb42+N3/bMec49fZf4bmG+8L3M+xMf2B/6PgZ8nFrIWsQuVnzS+tT92fXz2FLi0tI/QiyQvpNzTVQAAAAgY0hSTQAAeiYAAICEAAD6AAAAgOgAAHUwAADqYAAAOpgAABdwnLpRPAAAAG9QTFRF////////////5+fnt7e38/PzfHx8TExMoKCgcHBwlJSUZGRk29vbw8PDiIiIWFhY8L289M7N+N7d5YyJ4nx510tGzyolyAkD0zo16Z2a++/u7a2r3mtozBkU2ltXmTMwyRcRfjEv2L++rxYSoC0qpAgqvQAAAAJ0Uk5Tu4iSwbFZAAAAAWJLR0QAiAUdSAAAAAlwSFlzAAAASAAAAEgARslrPgAAAAd0SU1FB+UIBAsjHeS1CF4AAAMfSURBVHja7djrmpowEAZgq66421MgQSCIPd7/NZa1VTllDmF4lrYzf9XkTfIREjebNdW7zXZNtVGOcpSjHOWsqJSjHOUoZ1Wc3X6BHnf7p0jOITnKc56hRkHOS/JeXPMhST5GcuCfxhU8RDjKz8knYc3TZzAAMGefJDtZDtIizEHGElHIfCP7jnSYsTQiHOkwY8PDdmXZMKOLj3Fkw4y2hnFkw4zONfoKlQwznkSUIxlmfGj4AUMuzISFxzlyYSa0hHPkwkyYZ8JpUCrMlBQSOFJhpgyLclaWCTNp0SkcmTCTWqFwZMJMmmPSxQZfdWNMCn+DlkASJ9hUZqzLT8W9ytxVJnZIZM7kRPvalcVk5W5MIi44jTOKoa/yAqxzjbQwhzMYmzkXeDUuQ+Y3mtNb+epEwFzrcl806lZK5Dyao2OuMTLj4QhwbpNtSg7mOkN+y9i5qJxrFL3jYl4zZBn7OpXzOr66idC0Vabktx7576aX5Escpq2v36hnAjLn+49oTVs/vSwnjVyo+4LRPERONVNTFKeU0g+NU83FtNVQPCSOhIbmoXBkNCQPgVMLaVoPmmecM/eZ6hb6fKEcL6hpX6lzOfl8Q7fcPE7MSxMsM4djRrPdHs3TinYarDNv7PB4BMcZ4Qwaa6obEz2E5bduh/N7jucMm3psHFjCL49GLGO5QE426NNCyxheksHTUMZyLoM+eh+Cj1wXPpLbcI8QZ9hMf9XBV0fW++owgeE0Q5wcHBW4WnBDVbBLgJMVS3FOMZzzYpzw9IQ5o8npPrxbZL/uPcx+9HFwesIcO+4k634OboS91E+EPmVzJrrrTo8twOr05ydaclxOCg8aOyE+Tn5+6h7dcDnT0ch/r5fH36HNn+AH3m41kxOKRmmtvRSUas7WulAzjsfJSD3GV8njSN0eguVZHMoBa1ZVLA7rP66YcizO0prAnSLASef3h1TD4cjdPIPF4YjfZ8ZlGJzFHyweR/juOVVOOf8mx+WLV8XgvFX9HZzjYfHaMziHZPE6Kkc5ylGOcpSjnP+M81alHOUoRznKWVMpRznKWYTzC/Z94GDKAZpBAAAAJXRFWHRkYXRlOmNyZWF0ZQAyMDIxLTA4LTA0VDA5OjM1OjI5KzAyOjAwQ85+uAAAACV0RVh0ZGF0ZTptb2RpZnkAMjAyMS0wOC0wNFQwOTozNToyOSswMjowMDKTxgQAAAA5dEVYdHBzOkhpUmVzQm91bmRpbmdCb3gAMTQxLjczMngxMjcuNTU5KzIzNC42MzM4NTgrMzMxLjcyMDQ3Ms21ZpgAAAAcdEVYdHBzOkxldmVsAEFkb2JlLTMuMCBFUFNGLTMuMAqbcLvjAAAAAElFTkSuQmCC;" parent="1" vertex="1">
                    <mxGeometry x="774" y="140" width="142" height="128" as="geometry"/>
                </mxCell>
                <mxCell id="Pasp3V_EPRt6f8_NXhzm-5" value="" style="shape=image;verticalLabelPosition=bottom;labelBackgroundColor=default;verticalAlign=top;aspect=fixed;imageAspect=0;image=data:image/png,iVBORw0KGgoAAAANSUhEUgAAAI4AAACACAMAAADqKaFKAAAJJmlDQ1BpY2MAAEiJlZVnUJNZF8fv8zzphUASQodQQ5EqJYCUEFoo0quoQOidUEVsiLgCK4qINEWQRQEXXJUia0UUC4uCAhZ0gywCyrpxFVFBWXDfGZ33HT+8/5l7z2/+c+bec8/5cAEgiINlwct7YlK6wNvJjhkYFMwE3yiMn5bC8fR0A9/VuxEArcR7ut/P+a4IEZFp/OW4uLxy+SmCdACg7GXWzEpPWeGjy0wPj//CZ1dYsFzgMt9Y4eh/eexLzr8s+pLj681dfhUKABwp+hsO/4b/c++KVDiC9NioyGymT3JUelaYIJKZttIJHpfL9BQkR8UmRH5T8P+V/B2lR2anr0RucsomQWx0TDrzfw41MjA0BF9n8cbrS48hRv9/z2dFX73kegDYcwAg+7564ZUAdO4CQPrRV09tua+UfAA67vAzBJn/eqiVDQ0IgALoQAYoAlWgCXSBETADlsAWOAAX4AF8QRDYAPggBiQCAcgCuWAHKABFYB84CKpALWgATaAVnAad4Dy4Aq6D2+AuGAaPgRBMgpdABN6BBQiCsBAZokEykBKkDulARhAbsoYcIDfIGwqCQqFoKAnKgHKhnVARVApVQXVQE/QLdA66At2EBqGH0Dg0A/0NfYQRmATTYQVYA9aH2TAHdoV94fVwNJwK58D58F64Aq6HT8Id8BX4NjwMC+GX8BwCECLCQJQRXYSNcBEPJBiJQgTIVqQQKUfqkVakG+lD7iFCZBb5gMKgaCgmShdliXJG+aH4qFTUVlQxqgp1AtWB6kXdQ42jRKjPaDJaHq2DtkDz0IHoaHQWugBdjm5Et6OvoYfRk+h3GAyGgWFhzDDOmCBMHGYzphhzGNOGuYwZxExg5rBYrAxWB2uF9cCGYdOxBdhK7EnsJewQdhL7HkfEKeGMcI64YFwSLg9XjmvGXcQN4aZwC3hxvDreAu+Bj8BvwpfgG/Dd+Dv4SfwCQYLAIlgRfAlxhB2ECkIr4RphjPCGSCSqEM2JXsRY4nZiBfEU8QZxnPiBRCVpk7ikEFIGaS/pOOky6SHpDZlM1iDbkoPJ6eS95CbyVfJT8nsxmpieGE8sQmybWLVYh9iQ2CsKnqJO4VA2UHIo5ZQzlDuUWXG8uIY4VzxMfKt4tfg58VHxOQmahKGEh0SiRLFEs8RNiWkqlqpBdaBGUPOpx6hXqRM0hKZK49L4tJ20Bto12iQdQ2fRefQ4ehH9Z/oAXSRJlTSW9JfMlqyWvCApZCAMDQaPkcAoYZxmjDA+SilIcaQipfZItUoNSc1Ly0nbSkdKF0q3SQ9Lf5RhyjjIxMvsl+mUeSKLktWW9ZLNkj0ie012Vo4uZynHlyuUOy33SB6W15b3lt8sf0y+X35OQVHBSSFFoVLhqsKsIkPRVjFOsUzxouKMEk3JWilWqUzpktILpiSTw0xgVjB7mSJleWVn5QzlOuUB5QUVloqfSp5Km8oTVYIqWzVKtUy1R1WkpqTmrpar1qL2SB2vzlaPUT+k3qc+r8HSCNDYrdGpMc2SZvFYOawW1pgmWdNGM1WzXvO+FkaLrRWvdVjrrjasbaIdo12tfUcH1jHVidU5rDO4Cr3KfFXSqvpVo7okXY5upm6L7rgeQ89NL0+vU++Vvpp+sP5+/T79zwYmBgkGDQaPDamGLoZ5ht2GfxtpG/GNqo3uryavdly9bXXX6tfGOsaRxkeMH5jQTNxNdpv0mHwyNTMVmLaazpipmYWa1ZiNsulsT3Yx+4Y52tzOfJv5efMPFqYW6RanLf6y1LWMt2y2nF7DWhO5pmHNhJWKVZhVnZXQmmkdan3UWmijbBNmU2/zzFbVNsK20XaKo8WJ45zkvLIzsBPYtdvNcy24W7iX7RF7J/tC+wEHqoOfQ5XDU0cVx2jHFkeRk4nTZqfLzmhnV+f9zqM8BR6f18QTuZi5bHHpdSW5+rhWuT5z03YTuHW7w+4u7gfcx9aqr01a2+kBPHgeBzyeeLI8Uz1/9cJ4eXpVez33NvTO9e7zofls9Gn2eedr51vi+9hP0y/Dr8ef4h/i3+Q/H2AfUBogDNQP3BJ4O0g2KDaoKxgb7B/cGDy3zmHdwXWTISYhBSEj61nrs9ff3CC7IWHDhY2UjWEbz4SiQwNCm0MXwzzC6sPmwnnhNeEiPpd/iP8ywjaiLGIm0iqyNHIqyiqqNGo62ir6QPRMjE1MecxsLDe2KvZ1nHNcbdx8vEf88filhICEtkRcYmjiuSRqUnxSb7JicnbyYIpOSkGKMNUi9WCqSOAqaEyD0tandaXTlz/F/gzNjF0Z45nWmdWZ77P8s85kS2QnZfdv0t60Z9NUjmPOT5tRm/mbe3KVc3fkjm/hbKnbCm0N39qzTXVb/rbJ7U7bT+wg7Ijf8VueQV5p3tudATu78xXyt+dP7HLa1VIgViAoGN1tubv2B9QPsT8M7Fm9p3LP58KIwltFBkXlRYvF/OJbPxr+WPHj0t6ovQMlpiVH9mH2Je0b2W+z/0SpRGlO6cQB9wMdZcyywrK3BzcevFluXF57iHAo45Cwwq2iq1Ktcl/lYlVM1XC1XXVbjXzNnpr5wxGHh47YHmmtVagtqv14NPbogzqnuo56jfryY5hjmceeN/g39P3E/qmpUbaxqPHT8aTjwhPeJ3qbzJqamuWbS1rgloyWmZMhJ+/+bP9zV6tua10bo63oFDiVcerFL6G/jJx2Pd1zhn2m9az62Zp2WnthB9SxqUPUGdMp7ArqGjzncq6n27K7/Ve9X4+fVz5ffUHyQslFwsX8i0uXci7NXU65PHsl+spEz8aex1cDr97v9eoduOZ67cZ1x+tX+zh9l25Y3Th/0+LmuVvsW523TW939Jv0t/9m8lv7gOlAxx2zO113ze92D64ZvDhkM3Tlnv296/d5928Prx0eHPEbeTAaMip8EPFg+mHCw9ePMh8tPN4+hh4rfCL+pPyp/NP637V+bxOaCi+M24/3P/N59niCP/Hyj7Q/Fifzn5Ofl08pTTVNG02fn3Gcufti3YvJlykvF2YL/pT4s+aV5quzf9n+1S8KFE2+Frxe+rv4jcyb42+N3/bMec49fZf4bmG+8L3M+xMf2B/6PgZ8nFrIWsQuVnzS+tT92fXz2FLi0tI/QiyQvpNzTVQAAAAgY0hSTQAAeiYAAICEAAD6AAAAgOgAAHUwAADqYAAAOpgAABdwnLpRPAAAAJ9QTFRF////////////z8/PhISEfn5+oKCgiYmJeXl5w8PD8/Pzt7e3lJSUTExMfHx829vbZGRkV1dXX19fZWVlWFhYq6ur5+fncHBwxsbGaGhoo6OjrKysiIiIeHh4+N7d8L28++/u6Z2azyolyAkD0zo13mto4nx52ltX9M7NzBkUvr6+YmJi5YyJ10tG7a2rmpqadXV1tbW1XFxcj4+PaWlprcZASAAAAAJ0Uk5Tu4iSwbFZAAAAAWJLR0QAiAUdSAAAAAlwSFlzAAAASAAAAEgARslrPgAAAAd0SU1FB+UIBAsjHeS1CF4AAATCSURBVHja7ZvrmpMwEIbXdkWXNoBKl6oVyploqa56/9dmUlrICZp0GdxH+X6tNoU33yRDEqZ3dy9Jr+4WL0l3M86MM+PMODPOC9KMM+PMODPOP4GzvH9tMXrz9sEeBWfVXG9pwmKvkUKOOwKO01zLMnHGI194995h9MEn/+Vv/gaOS5s/So6tCJEOz8g4doA8ZVhsB/ka8RoZx0KoZ6DZPnImxwnQuu+jFULX59cQznL7scF5s9TUFqGHvqvZCH06tfm87I9aH467cdBN6nfA7xr5u9WjAY5t3cZCbtRv9he+4UYbh+YOf93TgRHkbnY0Myqur8A5WWOS+W4RmfgqgxQ4AUKe0WPhNm18RadlHOKNpfvEe5YeiUHiHJNwSJbfTQFDZHsoEDou4QTIZ5uEUbQH41lK4RJxLC6RxUlKlEVQPNIzRcTxmVDts/SsHAiHhIt/qAg4Lju6Who4no2QNwUc9uMiZQQUL1eYXAKOw5iXsDglkD0+vyoTcBBaXf6sWJoUA+Gs+VWQhPP18mfE4aRAOK/R+5eEc4++DeK0eeBZwaoOeX0ae7gui6FpYF0JVpeWuKFsMtOjIuGdxfmxL7Xr48TsFSttmBg3rhSHiCguyoatUAPp4yzqjqbQhTnSmyd8fKoDTahYeQ0DnH1pSlPRHtQKJ0OaU5Pjs3CI8afnRKmbkmmc6p7GYa7slhEOUaQ/aogDOO7/OCJ9K8URZIqjLRraLBxsQQzKhN6B4ZSKviv8S/g2UDiFVm4iySObAifWzJRiOxgc8kTJ9NbUZPwcwHGSFIeaTcn8YpqC4MQGy8U9ZsMFgUPuUOu3Llh2CJyC8/+qEgYeAIe3/7rY0ALgxGbmUHtafACc0nSfcegWlwA4mMskGqq65dz4OEfTWNFoXZYa4+PkwmNIQ0WagOHU+kvXi6J2ozQ+Dk5j06+E7eAZH+eW84T2O6PjROYjmRnLEDjGNN14m3EmxQlNdswXtbPxX59ZZLV5SxoMoXBq83PVGDArH8wPDrslyfg4lflY7pYkAOudxHTwMEsSAJxuuaApZkkCgBMZTnWy1G/thNjYZGb25MyWFQKH2GOw5AnZUzCQTXFtYg8xpztdAMGJDM5W+bYwJxi5drgqzDkJg7PPUqyVC8WGQKdfIWZHRL/qNOVOl6HOBiv5VFThTZkKO1awk1PylMZXsmGYSSeIYDiLI06HN+sRlicgHM6iStQvJBrRQ275UB4Qp3nxnit3XfuCWKOYfJA457IE+fVedaAwqldasDiNC/zrvfPLP7VrwDgU6PzqsS6LIq/x+fVjz8YZHGdxeb3XKhl4OTsFDvUoiok1xKBDNHig8B39GMR5GgdHV1/Qz0Gc7bQ4v9DvARwPvCROkMMX8Ag4a5061RFlMzUoChytOtUR9SDcT8CxB2pYIWShgPu3WPsVIG9Ce1yxNE7EWcLXd3Kd9/nOS3WD1miZ8Lrke0k4tjdZuBSRkGtO3WkqYE81sFLHFRW5KzRFESwtgJV/G6Aqn3Y9YpD271Bug6HlwTv5Fspq7qa23LG2T7o19wbafn6wAlpdvlLcuaf0fhncWuyuq52ydL33hwn2au1BoQRWX+r/H36fNePMODPOjDPjzDgQOH8AkDQZRpjEDNsAAAAldEVYdGRhdGU6Y3JlYXRlADIwMjEtMDgtMDRUMDk6MzU6MjkrMDI6MDBDzn64AAAAJXRFWHRkYXRlOm1vZGlmeQAyMDIxLTA4LTA0VDA5OjM1OjI5KzAyOjAwMpPGBAAAADl0RVh0cHM6SGlSZXNCb3VuZGluZ0JveAAxNDEuNzMyeDEyNy41NTkrMjM0LjYzMzg1OCszMzEuNzIwNDcyzbVmmAAAABx0RVh0cHM6TGV2ZWwAQWRvYmUtMy4wIEVQU0YtMy4wCptwu+MAAAAASUVORK5CYII=;" parent="1" vertex="1">
                    <mxGeometry x="332" y="66" width="142" height="128" as="geometry"/>
                </mxCell>
                <mxCell id="Pasp3V_EPRt6f8_NXhzm-6" value="" style="shape=image;verticalLabelPosition=bottom;labelBackgroundColor=default;verticalAlign=top;aspect=fixed;imageAspect=0;image=data:image/png,iVBORw0KGgoAAAANSUhEUgAAAI4AAACACAMAAADqKaFKAAAJJmlDQ1BpY2MAAEiJlZVnUJNZF8fv8zzphUASQodQQ5EqJYCUEFoo0quoQOidUEVsiLgCK4qINEWQRQEXXJUia0UUC4uCAhZ0gywCyrpxFVFBWXDfGZ33HT+8/5l7z2/+c+bec8/5cAEgiINlwct7YlK6wNvJjhkYFMwE3yiMn5bC8fR0A9/VuxEArcR7ut/P+a4IEZFp/OW4uLxy+SmCdACg7GXWzEpPWeGjy0wPj//CZ1dYsFzgMt9Y4eh/eexLzr8s+pLj681dfhUKABwp+hsO/4b/c++KVDiC9NioyGymT3JUelaYIJKZttIJHpfL9BQkR8UmRH5T8P+V/B2lR2anr0RucsomQWx0TDrzfw41MjA0BF9n8cbrS48hRv9/z2dFX73kegDYcwAg+7564ZUAdO4CQPrRV09tua+UfAA67vAzBJn/eqiVDQ0IgALoQAYoAlWgCXSBETADlsAWOAAX4AF8QRDYAPggBiQCAcgCuWAHKABFYB84CKpALWgATaAVnAad4Dy4Aq6D2+AuGAaPgRBMgpdABN6BBQiCsBAZokEykBKkDulARhAbsoYcIDfIGwqCQqFoKAnKgHKhnVARVApVQXVQE/QLdA66At2EBqGH0Dg0A/0NfYQRmATTYQVYA9aH2TAHdoV94fVwNJwK58D58F64Aq6HT8Id8BX4NjwMC+GX8BwCECLCQJQRXYSNcBEPJBiJQgTIVqQQKUfqkVakG+lD7iFCZBb5gMKgaCgmShdliXJG+aH4qFTUVlQxqgp1AtWB6kXdQ42jRKjPaDJaHq2DtkDz0IHoaHQWugBdjm5Et6OvoYfRk+h3GAyGgWFhzDDOmCBMHGYzphhzGNOGuYwZxExg5rBYrAxWB2uF9cCGYdOxBdhK7EnsJewQdhL7HkfEKeGMcI64YFwSLg9XjmvGXcQN4aZwC3hxvDreAu+Bj8BvwpfgG/Dd+Dv4SfwCQYLAIlgRfAlxhB2ECkIr4RphjPCGSCSqEM2JXsRY4nZiBfEU8QZxnPiBRCVpk7ikEFIGaS/pOOky6SHpDZlM1iDbkoPJ6eS95CbyVfJT8nsxmpieGE8sQmybWLVYh9iQ2CsKnqJO4VA2UHIo5ZQzlDuUWXG8uIY4VzxMfKt4tfg58VHxOQmahKGEh0SiRLFEs8RNiWkqlqpBdaBGUPOpx6hXqRM0hKZK49L4tJ20Bto12iQdQ2fRefQ4ehH9Z/oAXSRJlTSW9JfMlqyWvCApZCAMDQaPkcAoYZxmjDA+SilIcaQipfZItUoNSc1Ly0nbSkdKF0q3SQ9Lf5RhyjjIxMvsl+mUeSKLktWW9ZLNkj0ie012Vo4uZynHlyuUOy33SB6W15b3lt8sf0y+X35OQVHBSSFFoVLhqsKsIkPRVjFOsUzxouKMEk3JWilWqUzpktILpiSTw0xgVjB7mSJleWVn5QzlOuUB5QUVloqfSp5Km8oTVYIqWzVKtUy1R1WkpqTmrpar1qL2SB2vzlaPUT+k3qc+r8HSCNDYrdGpMc2SZvFYOawW1pgmWdNGM1WzXvO+FkaLrRWvdVjrrjasbaIdo12tfUcH1jHVidU5rDO4Cr3KfFXSqvpVo7okXY5upm6L7rgeQ89NL0+vU++Vvpp+sP5+/T79zwYmBgkGDQaPDamGLoZ5ht2GfxtpG/GNqo3uryavdly9bXXX6tfGOsaRxkeMH5jQTNxNdpv0mHwyNTMVmLaazpipmYWa1ZiNsulsT3Yx+4Y52tzOfJv5efMPFqYW6RanLf6y1LWMt2y2nF7DWhO5pmHNhJWKVZhVnZXQmmkdan3UWmijbBNmU2/zzFbVNsK20XaKo8WJ45zkvLIzsBPYtdvNcy24W7iX7RF7J/tC+wEHqoOfQ5XDU0cVx2jHFkeRk4nTZqfLzmhnV+f9zqM8BR6f18QTuZi5bHHpdSW5+rhWuT5z03YTuHW7w+4u7gfcx9aqr01a2+kBPHgeBzyeeLI8Uz1/9cJ4eXpVez33NvTO9e7zofls9Gn2eedr51vi+9hP0y/Dr8ef4h/i3+Q/H2AfUBogDNQP3BJ4O0g2KDaoKxgb7B/cGDy3zmHdwXWTISYhBSEj61nrs9ff3CC7IWHDhY2UjWEbz4SiQwNCm0MXwzzC6sPmwnnhNeEiPpd/iP8ywjaiLGIm0iqyNHIqyiqqNGo62ir6QPRMjE1MecxsLDe2KvZ1nHNcbdx8vEf88filhICEtkRcYmjiuSRqUnxSb7JicnbyYIpOSkGKMNUi9WCqSOAqaEyD0tandaXTlz/F/gzNjF0Z45nWmdWZ77P8s85kS2QnZfdv0t60Z9NUjmPOT5tRm/mbe3KVc3fkjm/hbKnbCm0N39qzTXVb/rbJ7U7bT+wg7Ijf8VueQV5p3tudATu78xXyt+dP7HLa1VIgViAoGN1tubv2B9QPsT8M7Fm9p3LP58KIwltFBkXlRYvF/OJbPxr+WPHj0t6ovQMlpiVH9mH2Je0b2W+z/0SpRGlO6cQB9wMdZcyywrK3BzcevFluXF57iHAo45Cwwq2iq1Ktcl/lYlVM1XC1XXVbjXzNnpr5wxGHh47YHmmtVagtqv14NPbogzqnuo56jfryY5hjmceeN/g39P3E/qmpUbaxqPHT8aTjwhPeJ3qbzJqamuWbS1rgloyWmZMhJ+/+bP9zV6tua10bo63oFDiVcerFL6G/jJx2Pd1zhn2m9az62Zp2WnthB9SxqUPUGdMp7ArqGjzncq6n27K7/Ve9X4+fVz5ffUHyQslFwsX8i0uXci7NXU65PHsl+spEz8aex1cDr97v9eoduOZ67cZ1x+tX+zh9l25Y3Th/0+LmuVvsW523TW939Jv0t/9m8lv7gOlAxx2zO113ze92D64ZvDhkM3Tlnv296/d5928Prx0eHPEbeTAaMip8EPFg+mHCw9ePMh8tPN4+hh4rfCL+pPyp/NP637V+bxOaCi+M24/3P/N59niCP/Hyj7Q/Fifzn5Ofl08pTTVNG02fn3Gcufti3YvJlykvF2YL/pT4s+aV5quzf9n+1S8KFE2+Frxe+rv4jcyb42+N3/bMec49fZf4bmG+8L3M+xMf2B/6PgZ8nFrIWsQuVnzS+tT92fXz2FLi0tI/QiyQvpNzTVQAAAAgY0hSTQAAeiYAAICEAAD6AAAAgOgAAHUwAADqYAAAOpgAABdwnLpRPAAAAKJQTFRF////////////+N7d5YyJ3mto10tG4nx58L28yAkDzBkU++/uzyol9M7N0zo16Z2a2ltX7a2r2WdjjigliIiItxINbTo5TExMw8PDzIB9WFhY8/PzoKCgZGRkz8/P7dTT5+fnlJSUt7e3cHBwVEhHwA0ImTMwXUNCrjw4fHx8z8LBnx8byhgSl4uKhi0qtysmy2VipxsWs0E9vhgTfjEv0lNPSn/RdwAAAAJ0Uk5Tu4iSwbFZAAAAAWJLR0QAiAUdSAAAAAlwSFlzAAAASAAAAEgARslrPgAAAAd0SU1FB+UIBAsjHeS1CF4AAATsSURBVHja7ZvnctswDIBdyxrUdp3EbeK6GU3TdM/3f7WaGrYkggBckbSvJ/zMnZWPBIhFcDY7J3kxm5+TzCacCWfCmXBOiOMt/CAIwugscKJANBIvTo6T+KIjaXZanCQXPYlPxNPgBEKcBU+NEwpF8tPhJLGKI4qT4QCbszPnk+HkEI7wzP6nLIqihIOTgDTCoPfJwrT5aFmgq5Q4EYwTmoIp0t53SwQIwQkM7YziRISvVRqC45vZGujTuW6DJI5nUVk+/G2dl61OVgz+ZGmAJhTiKJ4KB1xCbICmEFrJQfupcEDjMWA6XqzHgb9fxyzV+EVswAv6AhMozatxgGUYCFkeSgM6kibBUNT1cjwNsTlCANbcZoNRf39WFwZwYgIH8CT7XNnrrOXyar1+NZomI2iglKpTSTRxLvZfr3dyfTMWJ6RwgJxhUGdlVQ6wkTyj1VWSOOrZAsu+mzeSZ6y6AhJHPb1wFbo1oS4aR7VlTVFsQl0GcUyoi8ZRg7SuZWBAXZQXZJuylPHqWpA4alDX4oxX11uKBgha+v7OSHXd3l1fEjhAqYK0m4bq2tVJbJjtxe63KwIHSGEQnI66sjCo42HM6kbdP8hfrt89ojRQ/oU14xp1eX4/NMc+2t242VTLkPIeowHzO7Q3KNX19AFamDZV3JlMC/O8TXIEByxUUJydulaPR3ysNpla7m6lkvUpTzk/Gmf+8ZP+lKpOozEZqeFNcyKXup/DhQSO42GbnfctqGMyb+4Pf17Gx9CgOAmeXXZtsWcyvY9kKfBTbdGE4KCG2Fvi0GT6n1GywlRfpSA4dAgsdSYz0HnPU6RY30iPU5A00s1rTGYoy9qP5sECrya1OEnKwPn8ZW8yF9u5AdHi0HWAlFWjJdVkzOIkVM1Wy+OT1NJmdBFE4XAsR8rX9cO9KRYEhy6SavlmxGQonIRJAyWYFnC4ujJ9V6DB4Z0rKca6zxgO13SMdZ9xHLpka8XsRdNoHDHhIGKi/WwQx4kp8w+6mYsUAocu91tx4nc8No7ZC25dCOUkX1IMX+DqcLjG890NDtmjbuTq2WiGoU1OeUf9h1pY2cHhbc8VVOnZwGGUWUL81JSeFnAYyXvs3d6ZBUKqUFpd0ueYBcJaBlSG2uSlRwB5RViNl4XLf+hgEKHiEB54QIdBDCn54uhm3LzQ20/cy9lpoEj1HCV5n6WsSBcslGt5HMiD3ZgyjEGNMSYhtEFxCOgeAdJa4XBV9FRlojogXeNUB4QFwH6dxhnyTIqys0VlgRSeIBAeb3oJE3fmNCpCKQXZc1eBKPfe3R8LI7ADILq+7tiPlYncLlBE0nRbsJYGhA9Av2icTvpvbV65AfrNoOlcJVkcn66AqCu25rQ6wJFAvM05WLPl4fI/TJy29W0Xh93Ta9sydnH4PT3PBQ6/1C9c4PAbIaELHG5pvfeEdnHYNG2baMI5HQ7v2scZzpmdLH7zfuECh99izFzgsFuMbU/PckSnruIHpmMbhxu02hk5yzhMbe37r7bf9vG2Zz9AaBuHdQF+uNew/vKRsz2H0tb+Q0y65dmZEbGPQ87ddO98HDxT9XDz6V2mung1i85s9RtgTh7xJvpQOrgOc/SmOIQVlg4nll09cU6AAw88Fnb34toL+3VFvgCaek4fgHuLoMoP40DXYDzj9+hnIBPOhPO/4PwFtwoyP1f4AKEAAAAldEVYdGRhdGU6Y3JlYXRlADIwMjEtMDgtMDRUMDk6MzU6MjkrMDI6MDBDzn64AAAAJXRFWHRkYXRlOm1vZGlmeQAyMDIxLTA4LTA0VDA5OjM1OjI5KzAyOjAwMpPGBAAAADl0RVh0cHM6SGlSZXNCb3VuZGluZ0JveAAxNDEuNzMyeDEyNy41NTkrMjM0LjYzMzg1OCszMzEuNzIwNDcyzbVmmAAAABx0RVh0cHM6TGV2ZWwAQWRvYmUtMy4wIEVQU0YtMy4wCptwu+MAAAAASUVORK5CYII=;" parent="1" vertex="1">
                    <mxGeometry x="186" y="70" width="142" height="128" as="geometry"/>
                </mxCell>
                <mxCell id="Pasp3V_EPRt6f8_NXhzm-7" value="" style="shape=image;verticalLabelPosition=bottom;labelBackgroundColor=default;verticalAlign=top;aspect=fixed;imageAspect=0;image=data:image/png,iVBORw0KGgoAAAANSUhEUgAAAI4AAACACAMAAADqKaFKAAAJJmlDQ1BpY2MAAEiJlZVnUJNZF8fv8zzphUASQodQQ5EqJYCUEFoo0quoQOidUEVsiLgCK4qINEWQRQEXXJUia0UUC4uCAhZ0gywCyrpxFVFBWXDfGZ33HT+8/5l7z2/+c+bec8/5cAEgiINlwct7YlK6wNvJjhkYFMwE3yiMn5bC8fR0A9/VuxEArcR7ut/P+a4IEZFp/OW4uLxy+SmCdACg7GXWzEpPWeGjy0wPj//CZ1dYsFzgMt9Y4eh/eexLzr8s+pLj681dfhUKABwp+hsO/4b/c++KVDiC9NioyGymT3JUelaYIJKZttIJHpfL9BQkR8UmRH5T8P+V/B2lR2anr0RucsomQWx0TDrzfw41MjA0BF9n8cbrS48hRv9/z2dFX73kegDYcwAg+7564ZUAdO4CQPrRV09tua+UfAA67vAzBJn/eqiVDQ0IgALoQAYoAlWgCXSBETADlsAWOAAX4AF8QRDYAPggBiQCAcgCuWAHKABFYB84CKpALWgATaAVnAad4Dy4Aq6D2+AuGAaPgRBMgpdABN6BBQiCsBAZokEykBKkDulARhAbsoYcIDfIGwqCQqFoKAnKgHKhnVARVApVQXVQE/QLdA66At2EBqGH0Dg0A/0NfYQRmATTYQVYA9aH2TAHdoV94fVwNJwK58D58F64Aq6HT8Id8BX4NjwMC+GX8BwCECLCQJQRXYSNcBEPJBiJQgTIVqQQKUfqkVakG+lD7iFCZBb5gMKgaCgmShdliXJG+aH4qFTUVlQxqgp1AtWB6kXdQ42jRKjPaDJaHq2DtkDz0IHoaHQWugBdjm5Et6OvoYfRk+h3GAyGgWFhzDDOmCBMHGYzphhzGNOGuYwZxExg5rBYrAxWB2uF9cCGYdOxBdhK7EnsJewQdhL7HkfEKeGMcI64YFwSLg9XjmvGXcQN4aZwC3hxvDreAu+Bj8BvwpfgG/Dd+Dv4SfwCQYLAIlgRfAlxhB2ECkIr4RphjPCGSCSqEM2JXsRY4nZiBfEU8QZxnPiBRCVpk7ikEFIGaS/pOOky6SHpDZlM1iDbkoPJ6eS95CbyVfJT8nsxmpieGE8sQmybWLVYh9iQ2CsKnqJO4VA2UHIo5ZQzlDuUWXG8uIY4VzxMfKt4tfg58VHxOQmahKGEh0SiRLFEs8RNiWkqlqpBdaBGUPOpx6hXqRM0hKZK49L4tJ20Bto12iQdQ2fRefQ4ehH9Z/oAXSRJlTSW9JfMlqyWvCApZCAMDQaPkcAoYZxmjDA+SilIcaQipfZItUoNSc1Ly0nbSkdKF0q3SQ9Lf5RhyjjIxMvsl+mUeSKLktWW9ZLNkj0ie012Vo4uZynHlyuUOy33SB6W15b3lt8sf0y+X35OQVHBSSFFoVLhqsKsIkPRVjFOsUzxouKMEk3JWilWqUzpktILpiSTw0xgVjB7mSJleWVn5QzlOuUB5QUVloqfSp5Km8oTVYIqWzVKtUy1R1WkpqTmrpar1qL2SB2vzlaPUT+k3qc+r8HSCNDYrdGpMc2SZvFYOawW1pgmWdNGM1WzXvO+FkaLrRWvdVjrrjasbaIdo12tfUcH1jHVidU5rDO4Cr3KfFXSqvpVo7okXY5upm6L7rgeQ89NL0+vU++Vvpp+sP5+/T79zwYmBgkGDQaPDamGLoZ5ht2GfxtpG/GNqo3uryavdly9bXXX6tfGOsaRxkeMH5jQTNxNdpv0mHwyNTMVmLaazpipmYWa1ZiNsulsT3Yx+4Y52tzOfJv5efMPFqYW6RanLf6y1LWMt2y2nF7DWhO5pmHNhJWKVZhVnZXQmmkdan3UWmijbBNmU2/zzFbVNsK20XaKo8WJ45zkvLIzsBPYtdvNcy24W7iX7RF7J/tC+wEHqoOfQ5XDU0cVx2jHFkeRk4nTZqfLzmhnV+f9zqM8BR6f18QTuZi5bHHpdSW5+rhWuT5z03YTuHW7w+4u7gfcx9aqr01a2+kBPHgeBzyeeLI8Uz1/9cJ4eXpVez33NvTO9e7zofls9Gn2eedr51vi+9hP0y/Dr8ef4h/i3+Q/H2AfUBogDNQP3BJ4O0g2KDaoKxgb7B/cGDy3zmHdwXWTISYhBSEj61nrs9ff3CC7IWHDhY2UjWEbz4SiQwNCm0MXwzzC6sPmwnnhNeEiPpd/iP8ywjaiLGIm0iqyNHIqyiqqNGo62ir6QPRMjE1MecxsLDe2KvZ1nHNcbdx8vEf88filhICEtkRcYmjiuSRqUnxSb7JicnbyYIpOSkGKMNUi9WCqSOAqaEyD0tandaXTlz/F/gzNjF0Z45nWmdWZ77P8s85kS2QnZfdv0t60Z9NUjmPOT5tRm/mbe3KVc3fkjm/hbKnbCm0N39qzTXVb/rbJ7U7bT+wg7Ijf8VueQV5p3tudATu78xXyt+dP7HLa1VIgViAoGN1tubv2B9QPsT8M7Fm9p3LP58KIwltFBkXlRYvF/OJbPxr+WPHj0t6ovQMlpiVH9mH2Je0b2W+z/0SpRGlO6cQB9wMdZcyywrK3BzcevFluXF57iHAo45Cwwq2iq1Ktcl/lYlVM1XC1XXVbjXzNnpr5wxGHh47YHmmtVagtqv14NPbogzqnuo56jfryY5hjmceeN/g39P3E/qmpUbaxqPHT8aTjwhPeJ3qbzJqamuWbS1rgloyWmZMhJ+/+bP9zV6tua10bo63oFDiVcerFL6G/jJx2Pd1zhn2m9az62Zp2WnthB9SxqUPUGdMp7ArqGjzncq6n27K7/Ve9X4+fVz5ffUHyQslFwsX8i0uXci7NXU65PHsl+spEz8aex1cDr97v9eoduOZ67cZ1x+tX+zh9l25Y3Th/0+LmuVvsW523TW939Jv0t/9m8lv7gOlAxx2zO113ze92D64ZvDhkM3Tlnv296/d5928Prx0eHPEbeTAaMip8EPFg+mHCw9ePMh8tPN4+hh4rfCL+pPyp/NP637V+bxOaCi+M24/3P/N59niCP/Hyj7Q/Fifzn5Ofl08pTTVNG02fn3Gcufti3YvJlykvF2YL/pT4s+aV5quzf9n+1S8KFE2+Frxe+rv4jcyb42+N3/bMec49fZf4bmG+8L3M+xMf2B/6PgZ8nFrIWsQuVnzS+tT92fXz2FLi0tI/QiyQvpNzTVQAAAAgY0hSTQAAeiYAAICEAAD6AAAAgOgAAHUwAADqYAAAOpgAABdwnLpRPAAAANhQTFRF////////////////////////5+fnz8/PtbW1rKysvr6+8/Pzq6uroKCgfHx8cHBwTExMt7e329vbw8PDiIiIWFhYbGxsUlJScnJyb29vVlZW0tLSlJSU3d3dZGRkj4+PhYWFTk5O0dHRxsbGT09PWlpanp6es7OzsbGx2NjY09PTwsLC9PT04+Pj6Z2a4nx59M7N+N7d8L28yAkD5YyJ10tG2ltXzBkUzyol3mto7a2r0zo1++/uvLy8+fn5paWlUFBQV1dXZmZmWVlZqampU1NThISEYWFh+ka6IwAAAAV0Uk5TRCKIt8ckgbrZAAAAAWJLR0QAiAUdSAAAAAlwSFlzAAAASAAAAEgARslrPgAAAAd0SU1FB+UIBAsjHeS1CF4AAAgWSURBVHja7Ztpe9w0EIALxRapJflUL1xDoVwFmm7upIVSzv//j9DlXdvSjOSNnYTnyXxIvLs6Xo1GI1kaPXhwl+STB8ldkk/vce5xbhEnJZ8fHBw8Itkt4xDKeF4MJeesrG4BJ6vZGGQonNU3iZPRxtQrHj+Rf58ypRDCnsnn588sUlPu03d74JSGJWf1F1z+Z7tqs1ZxvCit4pr5OpqLkzJh2p5KLvnIx5ZCJIgoZTLD3LGZKpqHk7baNEw/lLJm6iRRuBoxK5WORJuuhaNhBLPlE9lfvrZXohBWZZWmb2doKB4nU+0WW+2rWv0NH/D0mZbHqbshzKhOH882YcaUDZFlcbJmrPUUoZHoo35Mm/H4uz5OLVWeD6uXIxxrsLTydvCRdLEKisJR+h71v2w+DeUYVq97DM8RjZPxiWqSrCt4IFNX5KPPSkFNuMPCOFXnjFVmXQsiZKoN3aigDwriyGEyVXM16TqvNI4fkI0QoVaEcOREIKZTDx+MY1Dk2GumZYV5Aji+EuR3ZZDGsWYlUtPPcR4cR9ZcfDnVRNiOoXTZVyH9oDjSSF6aGXogBHc5o7aMrUdNGC9xHgxHOfuvtY8fWk9TdFE0SSJGvrDUsww81YVwMjMRpGqNxbcKSeMsR2tjYPIKplCLDWghEMTJ+14hCqgr3ToCsiXPNIxtkuzDBswC47CBv9FAZqXTjXoAl0a7ZrOA3OmXIW4LxKknsyA3a9Iy7JBHZXxTmoxD62/gMiAcaTiTLk5b1chXxeNomiT71rxvsHRadgd0OITTeAakWf3KptIYBVWU2zcc5ycCdheAA60gvlOOSDW4Ycg7cEoYF/Z963tfAgb5Lj+OVKff8zZFI99ZbFWCt6wmw3IJKVnbk4i2zHK/GuQKxe+8/DjgCkIYpVW06QpM8tZ0KAOqhbrLi5NCfUuGfl9tGHD3/ZyzkvgzjNXsdV9enBZydb7GZmQnbi7IhwMt9uHAhp/P8IG9FgAXzLx68+G00CSZxc9XvdBCAGUJX9M8OPAkKYf/3F2SCvTA3snPgwNajiwhT+ZKB3V85jMJF0dqEZrh8oglu9s4Dv7i2oSLU0JjUw2T+RtIDFytVZ7iXJwcXI6kc2bzXuQwhX7y1OTgpLAKkJJhSeGldemODAcHHJmY3jGBm+fxGw4O4ulY5BvNWDhs/66PnOIgfYUVjEgDL41Lp/enOC8ovO/xA/1xD5zX9Cfop58p/QXHuWV5eLdwPrvzOG8OlZjnt/p5o583+vlohVQozuGxkqPB86Hz/bKpUJy3OumJfj7Vz2f6+Uw9nq+RCsVJznfZdAk238Xu66VToTiXKu3FrnHHx6rDN/rpzSqpUJw322wntogr+Xy1/Xb5VCjOjv3SFqHsT1vfu3VSoTjJuz6belBWd5pYSzxcKRWK08O/16NR/UmsJV6tlArF0bmOzf93ifEQb+1366RCcczwPNItu9SaPTGWeLZaKhTnzPTtqbZCU9Dlzp+tkQrF0cPzVDdsoz9cGJPcrJYKxdHD83xjnKj+sNm6s3VSoTjGiR/aHj63z87QXDIViqNzXNhcp8cDh7pWKhTnqs911JfnG5pLpkJxkmGuI/t8tmoqFOfM5NLzyntbxMmqqVAcO/8ag7swHzarpkJxNkODM5PxxbqpUBzbis2geZcrp0Jxbkfucf5HOA9n7WC82KOG1/RX6KffgjsYy+/vtOj+zmQ3ztlQ6eA625vf/cI2APfZ5Q7sDU4tw8GpbnTndLqD7e5+wSfT1cL7yjxiXzmh8DnIPrvuFOx831GM50wCjtJa9kyCeXawvSc2UHv2GVrwiY2IOrFRJgKcZ5Xzz7NgS/Ye9/k2cjly2jfXeK5/2qcGA6Ce+cazwFmoUk/8SbEKKjDiOwYTwLjwK8ePQ6LO0VPCnIN0wTmjAy4CuSq/coBDgBaKiLLdmNWMY0EGgrM6g9UJhx7Oj8FIdncAOs5YSUjf/kqFYDDeh0PkjMhu97v4HDAH4IiEAr7wQ/F7X1cJx8cR2hrij8CgYNAQhU5suK+76ra/AxB2P7I/tZo+ti52BYZ/QTipmK4mMlN88Ud8LH36p+lTOqbPcvCkHjzPKsfGZu4A5PQv+FjbFTmuHtHOuQ/Qwt4UPl5rB/1O9K2HVtmsmOEJzexHzH2ALRDdJzJOq9SMmdSE6Rn9Mvgk2SmhHw8mVM8CqThGMAty+GjD6/VNlW6rqFlRldsZV19Q0PH3FRwWlwRiTlU8JhWTIFgevWIerSvNjYmyQq8Q4Eez0pz/Ht2OUFLHLlGnCXX8/Ss8dzhe+Z/pSOqQmNGhuGpMnxaBrg5Hczvx8jRu1eNJpuLmccMLxrp74q9zzBh78Ux7JEgTPtYvnXBuJFRtIK3jLyMi72PuSQin9jbsmh1k5S+CNDFBD5WcnfmoenD9sZNph6pC8iVukdiGjTosaM3TBLSI6eDYkBDlC0cK4rjiyXgFUclZRkS9g0RGqKhpa+gOcec6DvfX7o8veT/LKmg3c41vqHloqlHGONXMwZlOpSVomqObbfoOQPx1zDnhROaCQl82xJNtLzTYhUUz4yrmvOgmcx+grXuezu2Ecut668a5A7AwTn/Vs9N3mJnbdL1SUzS1vjcw85LqPrFfmV79FqKhRF/ZHb4A6TFUEftOmM+/5bxXKFplXyqK/OmTovi3VReM1TXi50XxJLfvhDmdqZj9cVTltL8P4JHOAN4gjkaqWTN9VecNI3uiXBfHinw1P1Cye1m/VZwl5R7nHmdvnP8AB4+phmV43LYAAAAldEVYdGRhdGU6Y3JlYXRlADIwMjEtMDgtMDRUMDk6MzU6MjkrMDI6MDBDzn64AAAAJXRFWHRkYXRlOm1vZGlmeQAyMDIxLTA4LTA0VDA5OjM1OjI5KzAyOjAwMpPGBAAAADl0RVh0cHM6SGlSZXNCb3VuZGluZ0JveAAxNDEuNzMyeDEyNy41NTkrMjM0LjYzMzg1OCszMzEuNzIwNDcyzbVmmAAAAC10RVh0cHM6TGV2ZWwAQWRvYmVGb250LTEuMDogTmltYnVzU2FuTC1Cb2xkIDEuMDUKS+uLPwAAADZ0RVh0cHM6U3BvdENvbG9yLTAALXEgLW9sb2dvX3dlYk1kVmJfLnBzIGxvZ29fd2ViTWRWYl8uZHZpJ5cZOgAAAABJRU5ErkJggg==;" parent="1" vertex="1">
                    <mxGeometry x="40" y="66" width="142" height="128" as="geometry"/>
                </mxCell>
                <mxCell id="Pasp3V_EPRt6f8_NXhzm-8" value="" style="rounded=1;whiteSpace=wrap;html=1;fillColor=none;strokeColor=#CBDC38;strokeWidth=5;" parent="1" vertex="1">
                    <mxGeometry x="39" y="40" width="140" height="180" as="geometry"/>
                </mxCell>
                <mxCell id="Pasp3V_EPRt6f8_NXhzm-9" value="" style="rounded=1;whiteSpace=wrap;html=1;fillColor=none;strokeColor=#CBDC38;strokeWidth=5;" parent="1" vertex="1">
                    <mxGeometry x="186" y="40" width="140" height="180" as="geometry"/>
                </mxCell>
                <mxCell id="Pasp3V_EPRt6f8_NXhzm-10" value="" style="rounded=1;whiteSpace=wrap;html=1;fillColor=none;strokeColor=#CBDC38;strokeWidth=5;" parent="1" vertex="1">
                    <mxGeometry x="333" y="40" width="140" height="180" as="geometry"/>
                </mxCell>
                <mxCell id="Pasp3V_EPRt6f8_NXhzm-11" value="" style="rounded=1;whiteSpace=wrap;html=1;fillColor=none;strokeColor=#CBDC38;strokeWidth=5;" parent="1" vertex="1">
                    <mxGeometry x="480" y="40" width="140" height="180" as="geometry"/>
                </mxCell>
                <mxCell id="Pasp3V_EPRt6f8_NXhzm-12" value="" style="rounded=1;whiteSpace=wrap;html=1;fillColor=none;strokeColor=#CBDC38;strokeWidth=5;" parent="1" vertex="1">
                    <mxGeometry x="627" y="40" width="140" height="180" as="geometry"/>
                </mxCell>
                <mxCell id="Pasp3V_EPRt6f8_NXhzm-13" value="" style="rounded=1;whiteSpace=wrap;html=1;fillColor=none;strokeColor=#CBDC38;strokeWidth=5;" parent="1" vertex="1">
                    <mxGeometry x="774" y="40" width="140" height="330" as="geometry"/>
                </mxCell>
                <mxCell id="Pasp3V_EPRt6f8_NXhzm-14" value="" style="rounded=1;whiteSpace=wrap;html=1;fillColor=none;strokeColor=#CBDC38;strokeWidth=5;" parent="1" vertex="1">
                    <mxGeometry x="36" y="228" width="731" height="142" as="geometry"/>
                </mxCell>
                <mxCell id="Pasp3V_EPRt6f8_NXhzm-17" value="" style="shape=image;verticalLabelPosition=bottom;labelBackgroundColor=default;verticalAlign=top;aspect=fixed;imageAspect=0;image=data:image/png,iVBORw0KGgoAAAANSUhEUgAAAQAAAAEACAYAAABccqhmAAABhWlDQ1BJQ0MgcHJvZmlsZQAAKJF9kT1Iw0AYht+mlapUHNpBxCFDdbJQVMRRqlgEC6Wt0KqDyaV/0MSQpLg4Cq4FB38Wqw4uzro6uAqC4A+Io5OToouU+F1SaBHjHcc9vPe9L3ffAUKzxlQzEAdUzTIyyYSYL6yIwVf0IYAwzbjETD2VXcjBc3zdw8f3uxjP8q77cwwoRZMBPpF4lumGRbxOPL1p6Zz3iSOsIinE58TjBl2Q+JHrsstvnMsOCzwzYuQyc8QRYrHcxXIXs4qhEk8RRxVVo3wh77LCeYuzWquz9j35C0NFbTnLdVojSGIRKaQhQkYdVdRgIUa7RoqJDJ0nPPzDjj9NLplcVTByzGMDKiTHD/4Hv3trliYn3KRQAuh5se2PUSC4C7Qatv19bNutE8D/DFxpHf9GE5j5JL3R0aJHwOA2cHHd0eQ94HIHGHrSJUNyJD8toVQC3s/omwpA+BboX3X71j7H6QOQo14t3QAHh8BYmbLXPN7d2923f2va/fsBhmdyrzZ64ywAAAAGYktHRADIAAkAA7b+clAAAAAJcEhZcwAADdcAAA3XAUIom3gAAAAHdElNRQfmCQQTGSw5A3/LAAALYklEQVR42u3dv28b5xkH8Pd4rBwJAmrAsdIhSJGlDdq9kAOkTdAMWuuEWorAS9CxiwdNBdhRg6ZuBjoIQRbJTld1cJDUQKR/IEADdGrQurERIEYTCXF1ug6OEkUmqSN5R97d+/kAXiT/0sv3+b7P+x55lwQa4WAxzev2f8qXkzvXHh6/6dVprsQQ1KWaQnKwlJ605cfZ2r7e3V3fzbywAoCGrOhVWz3MOiEJuVdfACh4wupRZv7NWccQVKO300sPFtP89JcRGRyKp7/6fXNRB2ClR2cgABQ9wkAAKHwEgQBQ+DyRX07/fO3+47eNhABQ/LoBBIDCFwQIAMUvBBAAil8QIAAUvxBAACh+IYAAUPxCAAGg+IUAT/MBjDN8IAUdgNUfXYAAUPwIgfbrGoI5TcCW3QIMHYAOYMKVR/ehC5gXh15zLn4TFAFgtRECDQp4AUAlRSwEEACR7zNXDzOvCQIgWu6bbxsgAJplbyNLjQLNXG+YenWoYu9uxarvNk0HAAgAQAAAAgAQABHq7fRKvQrgAJBZcSpaUsGVecIsAKrhKoAOoPbclQgBEGkXEUIIa5tpZjQRABGGgNYfARBpCCh+BECMIZCHRPEzL+4JOIMQGHT6/O33l4wVAkBHALYAgAAABAAgAAABAAgAQAAAAgAQAIAAAAQAIAAAAQAIAEAAAN9xm+RIxXiPArcF1wEAAgAQACAAAAEARMddgSGEJ89nWEpPZvXP1eWKhACAEEL/j7O9JH7+MuzeRpb2++EkygBw33xit7aZZmuLs+8Ougoe6uW0PlYPs05IQt6KAFD0MGbNLKUnYbHajqCr8GGwKgtvnLr4tiOo4P/TVfgw/3ApUi8Hi2ledgiU/z4Aj7uGiQKhSHEfLKZ5mfVVagAcLKb5LK+lQsxBUKsAsOrDbIOgjJqbPgC0/DCzs4KyQ2CqAOjt9FItPzQ3BDrTFP/NG+8de3mguSEwWQDkIVH8MPsQ2Nq+Xuql+4kCQNsP87G7vpuV2QWMHQAO/KC+24Fx67Oj+KFlZwJ58Y82dxQ/tCsExtmiuyUYtDEECi7YhQLA6g/tdGEA9Pu6BGhrF3Bhca9tppkhhnrb28jS0jsArT80w7Abil5Uw9p7aPlWYKIAsPpDO4yqZR0ARNwFDA6APHiOOrRIb6eXFg4AH/aBdhn26V1bAIh4G9AZ58AAaK5Bta0DgIi7AAEAEeto/yEe568G6AAghLD675VnY9gGnL8aIAAghHD5nc8/i34LAK1d4St80m8rAsD+H+JwttZ1ABBx5yMAaL+F5K5BEADEugo+On7dKIwIAPt/0AFAdHvgEELYv9q93eYx2Nv4w1MfBT5d9BMdALEHwKD537bLhsN+Rh0AURe/LQAgACDG1T/27W/H/p/WmfK6f0xbBx0A7Vv9XfcvJg8OAYmz9Y+t/R80LgdL6YkAIMri1/7bAhBx8Tv7EgBY+aNe/QUAjba1/dKlSYrW6i8AaMGqv7v+8eNx/9ywR2TF+q5BAUCj7G288oNpinXYI7JilWiHaIKvfrH8y19/+OjeNH/HsLkey+rvyUA0cMXP0tWjLKmq+GPXNQTUdY8fQgihX83KF/veXwBQz4KfQdur+AUALSv0sYv/MOsEdwsQAE2e4ExW/PlycickIbozgUe/+emPfviXT/5z9msOAUso+LO/jMh87V/t3r7owO/aw+M3oxybn6w/PP81lwGt8lGs+iGE8MVbV55bu/XggTGyBVD4bZGH5GApPSn02t16YLycASj8Vq1kS14/AVDV4rKc3Il1v9i09l7xC4DyV/2j2f17+89230++yl8z8ro2AdDWyTNqv/qVs1iFLwBaN4G+17ouGV+FP889bUjOz0EBUMEkcmlV0dfRX3/7s5UQPvne17wPoMTJZCwrfH2evHXX+JY8P3UAJRT/1IW/kNx1L/sLWOudAVRiIbk76Wn/JIU/MGyOTEQEwHxW/wlX3nGK316Vuor6w0CTFGa//2q3SPGvHmYdHxBCB9Ai+yvd95PNe68VChVljw6gPav/wWKaJ/8d/k69re3rXas9OoAmGPPg76KWf/UoS8L6rtmEDqARq/8YB3+Fih8EQPv0+8PH593NF59R/DRdUmSVi3XvP2xctravd3fXdzPThybxYJApByuEJ4+mUvzYArS69X+1O/x7H3i2HK1Y0FaPsiSqACja/q9t3vvftNsH0AE00P5K933FjwCI1Kg3+4AAaKh8Oblz0e/p7fRSqz/RBUAME7zI3X1v3njPAR+t0+/3hy703xZ+298LUCTkhp2UmkI02ah57QzgG/vPPn34d3I5/dTI4AwgAoPuyf/y/ccvGBmiCICt7evuDQCxBoC3t0Ic+/+zi70tQAiht/PzBaNALM4u9gIghHDzxt+/Pv81p/9EtQUw6aH97f/IAADa7fwiLwDAFuBMQhxmQgEiaP8HdwAewAhRtP+2AGALUCwpgHa1/zoAiLj9HxkARW6gATR39R8ZAEVuoAE0d/W/cAuQX07/bPignav/hQFw7f7jtw0r1N/e71ZWxl39LwwAoBkuv/P5Z5P8uQsDwCVBaGbrX6R2C3UAQgDqaf9q9/Y0f94WABos+TJ/Y5pFu3AA6AKgPa3/RB2AEIB6F78tAERc/OMu0mMHgC4A2lH8E3cAQgCaX/xTbQGEADS7+Kc+AxACUH3hV1X8UweAEID5rPpl1V4pVwGEAMxu1S+z5kp7IOjpf6is65Ngxa9+wS39icCrR1kiBKDcoq+q267kkeC6ARgiD8nBUnpSl212t8qfVRC0Y9WhREv1KPyZBMCgH8LkgwI1c5h1ZvGQnu7Mf7BziTaLQNjafulSWP/YrKL+hX9aHzO6rtatzQ9cJcVPE4p+DrqGH+IpeAFA7Scls+N+ACAAAAEARMUZACGEON+f4dxDBwACABAAgAAAYuEQMEIxHn75EJoOABAAgAAABAAIAEAAAAIAEACAAABayzsBmZsqn3qLAKCG9q92bydf5m+MEw7CQADQlhX/y3yiPzerB2U4A4CS9XZ66bQfxjlYSk98oEcA0DD9fujcvPHe8SzODRAA1MzaZpqN+v7qUZac/1UkVIysAKAJe/4LCn/c7xUJFQQANdj3jyr+In/HqN9nKyAAqLFh+/5xL+m5BCgAaIlJi1kICABasvefVL6c3LENEABEtvqfuvbw+E2jKABm4mSle88oIABiHZQHx68YBQQAIAAAAQATm/bEftQbixAAUzm5nH761Bfz4NrzhKq4bj/ojUXeHyAASvHy/ccvPLViLaUnRqYeXYDr/QKApllI7pZSzDoxATCTbcDV7r/Of+2j5xc+MDITbgMeHb8+7Yp+sJjmwzox7b8AKHcb8M+vn39qcD7PfmVkqjkLOFhM86FBkIdkZEgM6S4Yn3sCFliFrDYzPhdYmry7KPpvfPHWlefCrQc6AFPwO3sbWWofOrsuYJ5/39qtB6o/BBO76P5UFzClPCTTXFnJl5M7k3wgyOspAIRAA8a2ilXf6+gMYCInV9IPBx0AOg8ot4Ufec9AzwHQAdR1pRICuri2cAg4QZF7Z1ozi/+Lt648Z3R0ADoBrxc6gGK2tq93dQLNKHzFLwBKt7u+mw19f8A3E89bhuu76it+W4DZTTQn1zPV74dOkUePGSkBMLMQMOm8DgKg5T768aW/FblxqAk4n8I39gKgemO8tXVr+6VLu+sfPzZo1Ra9whcAs+8Gnl/4YJyPDZug1RS+sRUAjZqsJqxxFAAmcPQT2XgJABN7iHc3X3zmT7//x9fGROELgIYqcq26TUVQ2bsjF5K7494JCAEQR3FUERxT3sCj7UEnAKhlZ9B0extZ2u8Hz2QQAHHp7fTSQU+/UfAIAKHQCj4rIQBoeTjYszfL/wFOcBwElNwUsQAAAABJRU5ErkJggg==;" parent="1" vertex="1">
                    <mxGeometry x="530" y="239" width="120" height="120" as="geometry"/>
                </mxCell>
                <mxCell id="3" value="&lt;font style=&quot;color: light-dark(rgb(200, 9, 3), rgb(237, 237, 237));&quot;&gt;IA&lt;/font&gt;" style="text;html=1;align=center;verticalAlign=middle;whiteSpace=wrap;rounded=0;fontColor=light-dark(#c80903, #ededed);fontFamily=Lucida Console;fontSize=60;fontStyle=1" vertex="1" parent="1">
                    <mxGeometry x="368" y="269" width="70" height="60" as="geometry"/>
                </mxCell>
            </root>
        </mxGraphModel>
    </diagram>
</mxfile>